<?xml version="1.0" encoding="UTF-8"?>
<svg width="1100" height="900" viewBox="0 0 1100 900" xmlns="http://www.w3.org/2000/svg">
  <defs>
    <style>
      .title-text { font-family: Arial, sans-serif; font-size: 18px; font-weight: bold; text-anchor: middle; }
      .phase-text { font-family: Arial, sans-serif; font-size: 14px; font-weight: bold; text-anchor: middle; }
      .step-text { font-family: Arial, sans-serif; font-size: 12px; font-weight: bold; text-anchor: middle; }
      .detail-text { font-family: Arial, sans-serif; font-size: 10px; text-anchor: middle; }
      .arrow { marker-end: url(#arrowhead); stroke: #333; stroke-width: 2; fill: none; }
      .rollback-arrow { marker-end: url(#arrowhead); stroke: #f44336; stroke-width: 2; fill: none; stroke-dasharray: "5,5"; }
      .phase-box { fill: #e8f4f8; stroke: #2196f3; stroke-width: 2; rx: 8; }
      .step-box { fill: #fff3e0; stroke: #ff9800; stroke-width: 2; rx: 5; }
      .decision-diamond { fill: #f3e5f5; stroke: #9c27b0; stroke-width: 2; }
      .rollback-box { fill: #ffebee; stroke: #f44336; stroke-width: 2; rx: 5; }
      .success-box { fill: #e8f5e8; stroke: #4caf50; stroke-width: 2; rx: 5; }
    </style>
    <marker id="arrowhead" markerWidth="10" markerHeight="7" refX="10" refY="3.5" orient="auto">
      <polygon points="0 0, 10 3.5, 0 7" fill="#333" />
    </marker>
  </defs>
  
  <!-- Title -->
  <text x="550" y="25" class="title-text">FIGURE 5: Intelligent Migration Orchestration Process</text>
  
  <!-- Phase 1: Assessment -->
  <rect x="50" y="60" width="220" height="120" class="phase-box"/>
  <text x="160" y="85" class="phase-text">Phase 1: Assessment</text>
  <text x="160" y="105" class="step-text">Current System Analysis</text>
  <text x="160" y="125" class="detail-text">• Cryptographic inventory</text>
  <text x="160" y="137" class="detail-text">• Dependency mapping</text>
  <text x="160" y="149" class="detail-text">• Risk assessment</text>
  <text x="160" y="161" class="detail-text">• Performance baseline</text>
  
  <!-- Phase 2: Planning -->
  <rect x="300" y="60" width="220" height="120" class="phase-box"/>
  <text x="410" y="85" class="phase-text">Phase 2: Planning</text>
  <text x="410" y="105" class="step-text">Migration Strategy Design</text>
  <text x="410" y="125" class="detail-text">• Phase sequencing</text>
  <text x="410" y="137" class="detail-text">• Rollback points</text>
  <text x="410" y="149" class="detail-text">• Resource allocation</text>
  <text x="410" y="161" class="detail-text">• Timeline creation</text>
  
  <!-- Phase 3: Preparation -->
  <rect x="550" y="60" width="220" height="120" class="phase-box"/>
  <text x="660" y="85" class="phase-text">Phase 3: Preparation</text>
  <text x="660" y="105" class="step-text">Environment Setup</text>
  <text x="660" y="125" class="detail-text">• Test environment</text>
  <text x="660" y="137" class="detail-text">• Bridge deployment</text>
  <text x="660" y="149" class="detail-text">• Monitoring setup</text>
  <text x="660" y="161" class="detail-text">• Team training</text>
  
  <!-- Phase 4: Execution -->
  <rect x="800" y="60" width="220" height="120" class="phase-box"/>
  <text x="910" y="85" class="phase-text">Phase 4: Execution</text>
  <text x="910" y="105" class="step-text">Phased Migration</text>
  <text x="910" y="125" class="detail-text">• Incremental deployment</text>
  <text x="910" y="137" class="detail-text">• Real-time monitoring</text>
  <text x="910" y="149" class="detail-text">• Performance validation</text>
  <text x="910" y="161" class="detail-text">• Issue resolution</text>
  
  <!-- Migration Steps Detail -->
  <rect x="100" y="230" width="150" height="80" class="step-box"/>
  <text x="175" y="255" class="step-text">Step 1:</text>
  <text x="175" y="270" class="step-text">Critical Systems</text>
  <text x="175" y="290" class="detail-text">High-priority systems</text>
  <text x="175" y="302" class="detail-text">Maximum security</text>
  
  <rect x="280" y="230" width="150" height="80" class="step-box"/>
  <text x="355" y="255" class="step-text">Step 2:</text>
  <text x="355" y="270" class="step-text">Core Infrastructure</text>
  <text x="355" y="290" class="detail-text">Network backbone</text>
  <text x="355" y="302" class="detail-text">Communication systems</text>
  
  <rect x="460" y="230" width="150" height="80" class="step-box"/>
  <text x="535" y="255" class="step-text">Step 3:</text>
  <text x="535" y="270" class="step-text">Application Layer</text>
  <text x="535" y="290" class="detail-text">Business applications</text>
  <text x="535" y="302" class="detail-text">User interfaces</text>
  
  <rect x="640" y="230" width="150" height="80" class="step-box"/>
  <text x="715" y="255" class="step-text">Step 4:</text>
  <text x="715" y="270" class="step-text">Edge Systems</text>
  <text x="715" y="290" class="detail-text">IoT devices</text>
  <text x="715" y="302" class="detail-text">Remote endpoints</text>
  
  <rect x="820" y="230" width="150" height="80" class="step-box"/>
  <text x="895" y="255" class="step-text">Step 5:</text>
  <text x="895" y="270" class="step-text">Legacy Systems</text>
  <text x="895" y="290" class="detail-text">Older applications</text>
  <text x="895" y="302" class="detail-text">Minimal disruption</text>
  
  <!-- Decision Points -->
  <polygon points="175,360 215,385 175,410 135,385" class="decision-diamond"/>
  <text x="175" y="380" class="step-text">Success?</text>
  <text x="175" y="395" class="detail-text">Validation</text>
  
  <polygon points="355,360 395,385 355,410 315,385" class="decision-diamond"/>
  <text x="355" y="380" class="step-text">Success?</text>
  <text x="355" y="395" class="detail-text">Validation</text>
  
  <polygon points="535,360 575,385 535,410 495,385" class="decision-diamond"/>
  <text x="535" y="380" class="step-text">Success?</text>
  <text x="535" y="395" class="detail-text">Validation</text>
  
  <polygon points="715,360 755,385 715,410 675,385" class="decision-diamond"/>
  <text x="715" y="380" class="step-text">Success?</text>
  <text x="715" y="395" class="detail-text">Validation</text>
  
  <polygon points="895,360 935,385 895,410 855,385" class="decision-diamond"/>
  <text x="895" y="380" class="step-text">Success?</text>
  <text x="895" y="395" class="detail-text">Final Check</text>
  
  <!-- Rollback Mechanisms -->
  <rect x="50" y="460" width="120" height="60" class="rollback-box"/>
  <text x="110" y="485" class="step-text">Rollback 1</text>
  <text x="110" y="505" class="detail-text">Critical restore</text>
  
  <rect x="200" y="460" width="120" height="60" class="rollback-box"/>
  <text x="260" y="485" class="step-text">Rollback 2</text>
  <text x="260" y="505" class="detail-text">Infrastructure restore</text>
  
  <rect x="350" y="460" width="120" height="60" class="rollback-box"/>
  <text x="410" y="485" class="step-text">Rollback 3</text>
  <text x="410" y="505" class="detail-text">Application restore</text>
  
  <rect x="500" y="460" width="120" height="60" class="rollback-box"/>
  <text x="560" y="485" class="step-text">Rollback 4</text>
  <text x="560" y="505" class="detail-text">Edge restore</text>
  
  <rect x="650" y="460" width="120" height="60" class="rollback-box"/>
  <text x="710" y="485" class="step-text">Rollback 5</text>
  <text x="710" y="505" class="detail-text">Complete restore</text>
  
  <!-- Monitoring and Control -->
  <rect x="200" y="570" width="700" height="80" class="step-box"/>
  <text x="550" y="595" class="phase-text">Continuous Monitoring &amp; Control System</text>
  <text x="300" y="620" class="detail-text">Performance Metrics</text>
  <text x="300" y="632" class="detail-text">• Latency monitoring</text>
  <text x="300" y="644" class="detail-text">• Throughput analysis</text>
  
  <text x="500" y="620" class="detail-text">Security Validation</text>
  <text x="500" y="632" class="detail-text">• Protocol verification</text>
  <text x="500" y="644" class="detail-text">• Integrity checks</text>
  
  <text x="700" y="620" class="detail-text">Error Detection</text>
  <text x="700" y="632" class="detail-text">• Failure identification</text>
  <text x="700" y="644" class="detail-text">• Automatic alerts</text>
  
  <text x="850" y="620" class="detail-text">Recovery Actions</text>
  <text x="850" y="632" class="detail-text">• Immediate response</text>
  <text x="850" y="644" class="detail-text">• Rollback triggers</text>
  
  <!-- Success Completion -->
  <rect x="800" y="460" width="200" height="80" class="success-box"/>
  <text x="900" y="485" class="phase-text">Migration Complete</text>
  <text x="900" y="505" class="step-text">Quantum-Safe Infrastructure</text>
  <text x="900" y="525" class="detail-text">• All systems migrated</text>
  <text x="900" y="537" class="detail-text">• Performance validated</text>
  
  <!-- Risk Assessment Matrix -->
  <rect x="50" y="700" width="1000" height="150" fill="#f8f9fa" stroke="#dee2e6" stroke-width="1" rx="5"/>
  <text x="550" y="725" class="phase-text">Migration Risk Assessment &amp; Mitigation Matrix</text>
  
  <text x="120" y="750" class="step-text">High Risk</text>
  <text x="120" y="770" class="detail-text">• Critical system downtime</text>
  <text x="120" y="782" class="detail-text">• Data integrity issues</text>
  <text x="120" y="794" class="detail-text">• Security vulnerabilities</text>
  <text x="120" y="806" class="detail-text">• Performance degradation</text>
  <text x="120" y="818" class="detail-text">• Compliance violations</text>
  <text x="120" y="830" class="detail-text">Mitigation: Extensive testing</text>
  
  <text x="350" y="750" class="step-text">Medium Risk</text>
  <text x="350" y="770" class="detail-text">• Temporary slowdowns</text>
  <text x="350" y="782" class="detail-text">• Minor compatibility issues</text>
  <text x="350" y="794" class="detail-text">• Training requirements</text>
  <text x="350" y="806" class="detail-text">• Resource constraints</text>
  <text x="350" y="818" class="detail-text">• Schedule delays</text>
  <text x="350" y="830" class="detail-text">Mitigation: Contingency planning</text>
  
  <text x="580" y="750" class="step-text">Low Risk</text>
  <text x="580" y="770" class="detail-text">• Documentation updates</text>
  <text x="580" y="782" class="detail-text">• User interface changes</text>
  <text x="580" y="794" class="detail-text">• Configuration adjustments</text>
  <text x="580" y="806" class="detail-text">• Monitoring setup</text>
  <text x="580" y="818" class="detail-text">• Reporting changes</text>
  <text x="580" y="830" class="detail-text">Mitigation: Standard procedures</text>
  
  <text x="810" y="750" class="step-text">Success Metrics</text>
  <text x="810" y="770" class="detail-text">• Zero security incidents</text>
  <text x="810" y="782" class="detail-text">• &lt; 5% performance impact</text>
  <text x="810" y="794" class="detail-text">• 99.9% system availability</text>
  <text x="810" y="806" class="detail-text">• Full regulatory compliance</text>
  <text x="810" y="818" class="detail-text">• User satisfaction &gt; 95%</text>
  <text x="810" y="830" class="detail-text">Validation: Continuous monitoring</text>
  
  <!-- Arrows showing flow -->
  <!-- Phase arrows -->
  <line x1="270" y1="120" x2="300" y2="120" class="arrow"/>
  <line x1="520" y1="120" x2="550" y2="120" class="arrow"/>
  <line x1="770" y1="120" x2="800" y2="120" class="arrow"/>
  
  <!-- Step to step arrows -->
  <line x1="250" y1="270" x2="280" y2="270" class="arrow"/>
  <line x1="430" y1="270" x2="460" y2="270" class="arrow"/>
  <line x1="610" y1="270" x2="640" y2="270" class="arrow"/>
  <line x1="790" y1="270" x2="820" y2="270" class="arrow"/>
  
  <!-- Step to decision arrows -->
  <line x1="175" y1="310" x2="175" y2="360" class="arrow"/>
  <line x1="355" y1="310" x2="355" y2="360" class="arrow"/>
  <line x1="535" y1="310" x2="535" y2="360" class="arrow"/>
  <line x1="715" y1="310" x2="715" y2="360" class="arrow"/>
  <line x1="895" y1="310" x2="895" y2="360" class="arrow"/>
  
  <!-- Success arrows -->
  <line x1="215" y1="385" x2="315" y2="385" class="arrow"/>
  <text x="265" y="380" class="detail-text">Yes</text>
  <line x1="395" y1="385" x2="495" y2="385" class="arrow"/>
  <text x="445" y="380" class="detail-text">Yes</text>
  <line x1="575" y1="385" x2="675" y2="385" class="arrow"/>
  <text x="625" y="380" class="detail-text">Yes</text>
  <line x1="755" y1="385" x2="855" y2="385" class="arrow"/>
  <text x="805" y="380" class="detail-text">Yes</text>
  <line x1="895" y1="410" x2="900" y2="460" class="arrow"/>
  <text x="920" y="430" class="detail-text">Yes</text>
  
  <!-- Rollback arrows -->
  <line x1="135" y1="385" x2="110" y2="460" class="rollback-arrow"/>
  <text x="105" y="420" class="detail-text">No</text>
  <line x1="315" y1="385" x2="260" y2="460" class="rollback-arrow"/>
  <text x="275" y="420" class="detail-text">No</text>
  <line x1="495" y1="385" x2="410" y2="460" class="rollback-arrow"/>
  <text x="445" y="420" class="detail-text">No</text>
  <line x1="675" y1="385" x2="560" y2="460" class="rollback-arrow"/>
  <text x="615" y="420" class="detail-text">No</text>
  <line x1="855" y1="385" x2="710" y2="460" class="rollback-arrow"/>
  <text x="775" y="420" class="detail-text">No</text>
  
  <!-- Monitoring connections -->
  <line x1="300" y1="570" x2="175" y2="410" class="arrow" stroke-dasharray="3,3"/>
  <line x1="500" y1="570" x2="535" y2="410" class="arrow" stroke-dasharray="3,3"/>
  <line x1="700" y1="570" x2="715" y2="410" class="arrow" stroke-dasharray="3,3"/>
  <line x1="800" y1="570" x2="895" y2="410" class="arrow" stroke-dasharray="3,3"/>
</svg>