<?xml version="1.0" encoding="UTF-8"?>
<svg width="1200" height="900" viewBox="0 0 1200 900" xmlns="http://www.w3.org/2000/svg">
  <defs>
    <style>
      .title-text { font-family: Arial, sans-serif; font-size: 20px; font-weight: bold; text-anchor: middle; }
      .component-text { font-family: Arial, sans-serif; font-size: 14px; font-weight: bold; text-anchor: middle; }
      .label-text { font-family: Arial, sans-serif; font-size: 12px; text-anchor: middle; }
      .arrow { marker-end: url(#arrowhead); stroke: #333; stroke-width: 2; fill: none; }
      .component-box { fill: #e8f4f8; stroke: #2196f3; stroke-width: 2; rx: 8; }
      .engine-box { fill: #fff3e0; stroke: #ff9800; stroke-width: 2; rx: 8; }
      .data-flow { fill: #f3e5f5; stroke: #9c27b0; stroke-width: 2; rx: 5; }
      .external-system { fill: #e8f5e8; stroke: #4caf50; stroke-width: 2; rx: 8; }
    </style>
    <marker id="arrowhead" markerWidth="10" markerHeight="7" refX="10" refY="3.5" orient="auto">
      <polygon points="0 0, 10 3.5, 0 7" fill="#333" />
    </marker>
  </defs>
  
  <!-- Title -->
  <text x="600" y="30" class="title-text">FIGURE 1: Dynamic Multi-Protocol Security Orchestration System Architecture</text>
  
  <!-- Central Orchestrator -->
  <rect x="450" y="350" width="300" height="80" class="component-box"/>
  <text x="600" y="385" class="component-text">Dynamic Multi-Protocol</text>
  <text x="600" y="405" class="component-text">Security Orchestrator</text>
  
  <!-- Quantum Threat Assessment Engine -->
  <rect x="50" y="100" width="250" height="120" class="engine-box"/>
  <text x="175" y="130" class="component-text">Quantum Threat</text>
  <text x="175" y="150" class="component-text">Assessment Engine</text>
  <text x="175" y="180" class="label-text">• Quantum Capability Monitoring</text>
  <text x="175" y="195" class="label-text">• Threat Intelligence Aggregation</text>
  <text x="175" y="210" class="label-text">• Algorithm Vulnerability Analysis</text>
  
  <!-- Dynamic Protocol Selection Engine -->
  <rect x="900" y="100" width="250" height="120" class="engine-box"/>
  <text x="1025" y="130" class="component-text">Dynamic Protocol</text>
  <text x="1025" y="150" class="component-text">Selection Engine</text>
  <text x="1025" y="180" class="label-text">• Multi-Objective Optimization</text>
  <text x="1025" y="195" class="label-text">• Resource Compatibility Analysis</text>
  <text x="1025" y="210" class="label-text">• Performance Prediction</text>
  
  <!-- Seamless Protocol Bridge Manager -->
  <rect x="50" y="680" width="250" height="120" class="engine-box"/>
  <text x="175" y="710" class="component-text">Seamless Protocol</text>
  <text x="175" y="730" class="component-text">Bridge Manager</text>
  <text x="175" y="760" class="label-text">• Protocol Translation Layers</text>
  <text x="175" y="775" class="label-text">• Security Parameter Mapping</text>
  <text x="175" y="790" class="label-text">• Interoperability Validation</text>
  
  <!-- Automated Vulnerability Scanner -->
  <rect x="900" y="680" width="250" height="120" class="engine-box"/>
  <text x="1025" y="710" class="component-text">Automated</text>
  <text x="1025" y="730" class="component-text">Vulnerability Scanner</text>
  <text x="1025" y="760" class="label-text">• Quantum Vulnerability Detection</text>
  <text x="1025" y="775" class="label-text">• Implementation Analysis</text>
  <text x="1025" y="790" class="label-text">• Configuration Security Scan</text>
  
  <!-- Adaptive Resource Manager -->
  <rect x="350" y="100" width="250" height="120" class="engine-box"/>
  <text x="475" y="130" class="component-text">Adaptive Resource</text>
  <text x="475" y="150" class="component-text">Manager</text>
  <text x="475" y="180" class="label-text">• Computational Capability Assessment</text>
  <text x="475" y="195" class="label-text">• Memory Constraint Analysis</text>
  <text x="475" y="210" class="label-text">• Algorithm Optimization</text>
  
  <!-- Intelligent Migration Orchestrator -->
  <rect x="650" y="100" width="250" height="120" class="engine-box"/>
  <text x="775" y="130" class="component-text">Intelligent Migration</text>
  <text x="775" y="150" class="component-text">Orchestrator</text>
  <text x="775" y="180" class="label-text">• Migration Planning</text>
  <text x="775" y="195" class="label-text">• Risk Assessment</text>
  <text x="775" y="210" class="label-text">• Phased Execution</text>
  
  <!-- External Systems -->
  <rect x="350" y="680" width="180" height="80" class="external-system"/>
  <text x="440" y="710" class="component-text">Classical Systems</text>
  <text x="440" y="730" class="label-text">(Legacy Protocols)</text>
  
  <rect x="570" y="680" width="180" height="80" class="external-system"/>
  <text x="660" y="710" class="component-text">Quantum-Safe Systems</text>
  <text x="660" y="730" class="label-text">(Post-Quantum Protocols)</text>
  
  <!-- Threat Intelligence Sources -->
  <rect x="50" y="300" width="150" height="60" class="data-flow"/>
  <text x="125" y="320" class="label-text">Research</text>
  <text x="125" y="335" class="label-text">Publications</text>
  <text x="125" y="350" class="label-text">Threat Feeds</text>
  
  <rect x="50" y="380" width="150" height="60" class="data-flow"/>
  <text x="125" y="400" class="label-text">Commercial</text>
  <text x="125" y="415" class="label-text">Quantum</text>
  <text x="125" y="430" class="label-text">Development</text>
  
  <!-- Performance Monitoring -->
  <rect x="1000" y="300" width="150" height="120" class="data-flow"/>
  <text x="1075" y="330" class="label-text">Performance</text>
  <text x="1075" y="345" class="label-text">Monitoring</text>
  <text x="1075" y="370" class="label-text">• Latency Metrics</text>
  <text x="1075" y="385" class="label-text">• Throughput Analysis</text>
  <text x="1075" y="400" class="label-text">• Resource Utilization</text>
  
  <!-- Compliance & Policy -->
  <rect x="350" y="500" width="180" height="80" class="data-flow"/>
  <text x="440" y="530" class="label-text">Compliance &</text>
  <text x="440" y="545" class="label-text">Policy Manager</text>
  <text x="440" y="560" class="label-text">• Regulatory Requirements</text>
  
  <rect x="570" y="500" width="180" height="80" class="data-flow"/>
  <text x="660" y="530" class="label-text">Security Analytics</text>
  <text x="660" y="545" class="label-text">Engine</text>
  <text x="660" y="560" class="label-text">• Pattern Analysis</text>
  
  <!-- Arrows showing data flow -->
  <!-- From Threat Sources to Orchestrator -->
  <line x1="200" y1="330" x2="450" y2="380" class="arrow"/>
  <line x1="200" y1="410" x2="450" y2="390" class="arrow"/>
  
  <!-- From Engines to Central Orchestrator -->
  <line x1="300" y1="160" x2="500" y2="350" class="arrow"/>
  <line x1="475" y1="220" x2="550" y2="350" class="arrow"/>
  <line x1="775" y1="220" x2="650" y2="350" class="arrow"/>
  <line x1="1025" y1="220" x2="700" y2="350" class="arrow"/>
  
  <!-- From Orchestrator to Bridge Manager and Vulnerability Scanner -->
  <line x1="500" y1="430" x2="250" y2="680" class="arrow"/>
  <line x1="700" y1="430" x2="950" y2="680" class="arrow"/>
  
  <!-- From Bridge Manager to External Systems -->
  <line x1="300" y1="740" x2="350" y2="720" class="arrow"/>
  <line x1="300" y1="740" x2="570" y2="720" class="arrow"/>
  
  <!-- Bidirectional arrows for monitoring -->
  <line x1="750" y1="390" x2="1000" y2="360" class="arrow"/>
  <line x1="1000" y1="340" x2="750" y2="370" class="arrow"/>
  
  <!-- From Orchestrator to Support Systems -->
  <line x1="600" y1="430" x2="440" y2="500" class="arrow"/>
  <line x1="600" y1="430" x2="660" y2="500" class="arrow"/>
  
  <!-- Legend -->
  <rect x="50" y="850" width="1100" height="40" fill="#f5f5f5" stroke="#ccc" stroke-width="1"/>
  <text x="600" y="875" class="label-text">Legend: Orange = Core Engines | Blue = Central Orchestrator | Purple = Data/Analytics | Green = External Systems</text>
</svg>