<svg width="1200" height="800" xmlns="http://www.w3.org/2000/svg">
  <!-- Title -->
  <text x="600" y="30" text-anchor="middle" font-size="18" font-weight="bold" fill="black">
    FIGURE 1: TEMPORAL FRAGMENTATION LIFECYCLE WITH QUANTUM TIMING ANALYSIS
  </text>
  
  <!-- Background -->
  <rect x="50" y="60" width="1100" height="700" fill="#f8f9fa" stroke="black" stroke-width="2" rx="10"/>
  
  <!-- Timeline Scale -->
  <g id="TimelineScale" transform="translate(100, 120)">
    <line x1="0" y1="0" x2="1000" y2="0" stroke="black" stroke-width="3"/>
    <text x="500" y="-20" text-anchor="middle" font-size="14" font-weight="bold">TEMPORAL FRAGMENTATION TIMELINE (milliseconds)</text>
    
    <!-- Time Markers -->
    <g id="TimeMarkers">
      <!-- 0ms -->
      <line x1="0" y1="-10" x2="0" y2="10" stroke="black" stroke-width="2"/>
      <text x="0" y="-15" text-anchor="middle" font-size="10">0ms</text>
      <text x="0" y="25" text-anchor="middle" font-size="9" font-weight="bold">CREATION</text>
      
      <!-- 100ms -->
      <line x1="100" y1="-10" x2="100" y2="10" stroke="black" stroke-width="2"/>
      <text x="100" y="-15" text-anchor="middle" font-size="10">100ms</text>
      
      <!-- 1000ms (1 second) -->
      <line x1="200" y1="-10" x2="200" y2="10" stroke="black" stroke-width="2"/>
      <text x="200" y="-15" text-anchor="middle" font-size="10">1s</text>
      
      <!-- 3000ms (3 seconds) -->
      <line x1="400" y1="-10" x2="400" y2="10" stroke="black" stroke-width="2"/>
      <text x="400" y="-15" text-anchor="middle" font-size="10">3s</text>
      <text x="400" y="25" text-anchor="middle" font-size="9" font-weight="bold" fill="red">TYPICAL EXPIRY</text>
      
      <!-- 5000ms (5 seconds) -->
      <line x1="500" y1="-10" x2="500" y2="10" stroke="black" stroke-width="2"/>
      <text x="500" y="-15" text-anchor="middle" font-size="10">5s</text>
      
      <!-- 10000ms (10 seconds) -->
      <line x1="700" y1="-10" x2="700" y2="10" stroke="black" stroke-width="2"/>
      <text x="700" y="-15" text-anchor="middle" font-size="10">10s</text>
      <text x="700" y="25" text-anchor="middle" font-size="9" font-weight="bold" fill="orange">QUANTUM RISK</text>
      
      <!-- 30000ms (30 seconds) -->
      <line x1="1000" y1="-10" x2="1000" y2="10" stroke="black" stroke-width="2"/>
      <text x="1000" y="-15" text-anchor="middle" font-size="10">30s</text>
      <text x="1000" y="25" text-anchor="middle" font-size="9" font-weight="bold" fill="red">UNSAFE</text>
    </g>
  </g>
  
  <!-- Fragment Lifecycle Phases -->
  <!-- Phase 1: Fragment Creation (0-100ms) -->
  <g id="CreationPhase" transform="translate(100, 180)">
    <rect x="0" y="0" width="100" height="80" fill="#e8f5e8" stroke="green" stroke-width="2" rx="5"/>
    <text x="50" y="20" text-anchor="middle" font-size="12" font-weight="bold">CREATION</text>
    <text x="50" y="35" text-anchor="middle" font-size="12" font-weight="bold">PHASE</text>
    <text x="10" y="50" font-size="8">• Data Fragmentation</text>
    <text x="10" y="60" font-size="8">• Metadata Generation</text>
    <text x="10" y="70" font-size="8">• Checksum Calculation</text>
    
    <!-- Creation Icon -->
    <circle cx="80" cy="20" r="8" fill="green"/>
    <text x="80" y="25" text-anchor="middle" font-size="8" fill="white" font-weight="bold">+</text>
  </g>
  
  <!-- Phase 2: Active Monitoring (100ms-3s) -->
  <g id="MonitoringPhase" transform="translate(200, 180)">
    <rect x="0" y="0" width="200" height="80" fill="#e3f2fd" stroke="blue" stroke-width="2" rx="5"/>
    <text x="100" y="20" text-anchor="middle" font-size="12" font-weight="bold">ACTIVE MONITORING</text>
    <text x="10" y="35" font-size="8">• 100ms Integrity Checks</text>
    <text x="10" y="45" font-size="8">• Real-time SHA256 Verification</text>
    <text x="10" y="55" font-size="8">• Access Pattern Analysis</text>
    <text x="10" y="65" font-size="8">• Quantum Timing Validation</text>
    
    <!-- Monitoring Icon -->
    <circle cx="170" cy="20" r="8" fill="blue"/>
    <text x="170" y="25" text-anchor="middle" font-size="8" fill="white" font-weight="bold">👁</text>
  </g>
  
  <!-- Phase 3: Secure Destruction (3s+) -->
  <g id="DestructionPhase" transform="translate(400, 180)">
    <rect x="0" y="0" width="100" height="80" fill="#ffebee" stroke="red" stroke-width="2" rx="5"/>
    <text x="50" y="20" text-anchor="middle" font-size="12" font-weight="bold">SECURE</text>
    <text x="50" y="35" text-anchor="middle" font-size="12" font-weight="bold">DESTRUCTION</text>
    <text x="10" y="50" font-size="8">• 7-Pass Memory Wipe</text>
    <text x="10" y="60" font-size="8">• Cryptographic Erasure</text>
    <text x="10" y="70" font-size="8">• Fragment Deletion</text>
    
    <!-- Destruction Icon -->
    <circle cx="80" cy="20" r="8" fill="red"/>
    <text x="80" y="25" text-anchor="middle" font-size="8" fill="white" font-weight="bold">×</text>
  </g>
  
  <!-- Quantum Algorithm Timing Comparison -->
  <g id="QuantumTimingComparison" transform="translate(100, 300)">
    <rect x="0" y="0" width="1000" height="200" fill="#fff3e0" stroke="orange" stroke-width="2" rx="10"/>
    <text x="500" y="25" text-anchor="middle" font-size="14" font-weight="bold" fill="orange">QUANTUM ALGORITHM TIMING ANALYSIS</text>
    
    <!-- Shor's Algorithm (RSA-2048) -->
    <g id="ShorRSA" transform="translate(20, 50)">
      <rect x="0" y="0" width="300" height="40" fill="#ff9999" stroke="red" stroke-width="2" rx="5"/>
      <text x="150" y="18" text-anchor="middle" font-size="11" font-weight="bold">SHOR'S ALGORITHM (RSA-2048)</text>
      <text x="150" y="32" text-anchor="middle" font-size="9">Minimum: 10s | Typical: 20s | Maximum: 30s</text>
      
      <!-- Timing Bar -->
      <rect x="320" y="5" width="600" height="30" fill="white" stroke="red" stroke-width="1" rx="3"/>
      <rect x="520" y="7" width="240" height="26" fill="#ff9999" opacity="0.7" rx="2"/>
      <text x="640" y="25" text-anchor="middle" font-size="9" font-weight="bold">10-30 SECONDS</text>
    </g>
    
    <!-- Grover's Algorithm (256-bit) -->
    <g id="Grover256" transform="translate(20, 100)">
      <rect x="0" y="0" width="300" height="40" fill="#ffb366" stroke="orange" stroke-width="2" rx="5"/>
      <text x="150" y="18" text-anchor="middle" font-size="11" font-weight="bold">GROVER'S ALGORITHM (256-bit)</text>
      <text x="150" y="32" text-anchor="middle" font-size="9">Minimum: 10s | Typical: 17s | Maximum: 25s</text>
      
      <!-- Timing Bar -->
      <rect x="320" y="5" width="600" height="30" fill="white" stroke="orange" stroke-width="1" rx="3"/>
      <rect x="520" y="7" width="200" height="26" fill="#ffb366" opacity="0.7" rx="2"/>
      <text x="620" y="25" text-anchor="middle" font-size="9" font-weight="bold">10-25 SECONDS</text>
    </g>
    
    <!-- Simon's Algorithm -->
    <g id="Simon" transform="translate(20, 150)">
      <rect x="0" y="0" width="300" height="40" fill="#ffcc80" stroke="darkorange" stroke-width="2" rx="5"/>
      <text x="150" y="18" text-anchor="middle" font-size="11" font-weight="bold">SIMON'S ALGORITHM</text>
      <text x="150" y="32" text-anchor="middle" font-size="9">Minimum: 3s | Typical: 5.5s | Maximum: 8s</text>
      
      <!-- Timing Bar -->
      <rect x="320" y="5" width="600" height="30" fill="white" stroke="darkorange" stroke-width="1" rx="3"/>
      <rect x="380" y="7" width="80" height="26" fill="#ffcc80" opacity="0.7" rx="2"/>
      <text x="420" y="25" text-anchor="middle" font-size="9" font-weight="bold">3-8 SECONDS</text>
    </g>
  </g>
  
  <!-- Fragment Security Zone -->
  <g id="SecurityZone" transform="translate(100, 520)">
    <rect x="0" y="0" width="400" height="100" fill="#e8f5e8" stroke="green" stroke-width="3" rx="10"/>
    <text x="200" y="25" text-anchor="middle" font-size="14" font-weight="bold" fill="green">QUANTUM-SAFE ZONE</text>
    <text x="200" y="45" text-anchor="middle" font-size="12" fill="green">Fragment Expiration: 0.1s - 3s</text>
    <text x="200" y="65" text-anchor="middle" font-size="11" fill="green">Prevents ALL Quantum Algorithm Completion</text>
    <text x="200" y="85" text-anchor="middle" font-size="10" fill="green">100% Security Guarantee</text>
  </g>
  
  <!-- Vulnerability Zone -->
  <g id="VulnerabilityZone" transform="translate(520, 520)">
    <rect x="0" y="0" width="480" height="100" fill="#ffebee" stroke="red" stroke-width="3" rx="10"/>
    <text x="240" y="25" text-anchor="middle" font-size="14" font-weight="bold" fill="red">QUANTUM VULNERABILITY ZONE</text>
    <text x="240" y="45" text-anchor="middle" font-size="12" fill="red">Fragment Expiration: 3s - 30s+</text>
    <text x="240" y="65" text-anchor="middle" font-size="11" fill="red">Allows Quantum Algorithm Completion</text>
    <text x="240" y="85" text-anchor="middle" font-size="10" fill="red">Security Risk: HIGH to CRITICAL</text>
  </g>
  
  <!-- Fragment Lifecycle Flow Arrows -->
  <g id="FlowArrows">
    <!-- Creation to Monitoring -->
    <path d="M 200 220 L 220 220" stroke="#333" stroke-width="3" marker-end="url(#arrowhead)"/>
    
    <!-- Monitoring to Destruction -->
    <path d="M 400 220 L 420 220" stroke="#333" stroke-width="3" marker-end="url(#arrowhead)"/>
    
    <!-- Quantum Prevention Arrow -->
    <path d="M 300 470 L 300 520" stroke="green" stroke-width="4" marker-end="url(#greenarrow)"/>
    <text x="320" y="490" font-size="11" font-weight="bold" fill="green">PREVENTS</text>
    
    <!-- Vulnerability Risk Arrow -->
    <path d="M 700 470 L 700 520" stroke="red" stroke-width="4" marker-end="url(#redarrow)"/>
    <text x="720" y="490" font-size="11" font-weight="bold" fill="red">ENABLES</text>
  </g>
  
  <!-- Timing Precision Indicator -->
  <g id="TimingPrecision" transform="translate(550, 180)">
    <rect x="0" y="0" width="200" height="80" fill="#f3e5f5" stroke="purple" stroke-width="2" rx="5"/>
    <text x="100" y="20" text-anchor="middle" font-size="12" font-weight="bold" fill="purple">TIMING PRECISION</text>
    <text x="20" y="35" font-size="9" fill="purple">• Nanosecond Creation Timestamps</text>
    <text x="20" y="45" font-size="9" fill="purple">• 100ms Monitoring Intervals</text>
    <text x="20" y="55" font-size="9" fill="purple">• Microsecond Destruction Timing</text>
    <text x="20" y="65" font-size="9" fill="purple">• Quantum Noise Variations</text>
    
    <!-- Precision Icon -->
    <circle cx="170" cy="20" r="8" fill="purple"/>
    <text x="170" y="25" text-anchor="middle" font-size="8" fill="white" font-weight="bold">⏱</text>
  </g>
  
  <!-- Self-Describing Metadata -->
  <g id="MetadataBox" transform="translate(800, 180)">
    <rect x="0" y="0" width="200" height="80" fill="#fff8e1" stroke="goldenrod" stroke-width="2" rx="5"/>
    <text x="100" y="20" text-anchor="middle" font-size="12" font-weight="bold" fill="goldenrod">METADATA</text>
    <text x="20" y="35" font-size="9" fill="goldenrod">• Reconstruction Maps</text>
    <text x="20" y="45" font-size="9" fill="goldenrod">• Checksum Chains</text>
    <text x="20" y="55" font-size="9" fill="goldenrod">• Security Parameters</text>
    <text x="20" y="65" font-size="9" fill="goldenrod">• Quantum Profiles</text>
    
    <!-- Metadata Icon -->
    <circle cx="170" cy="20" r="8" fill="goldenrod"/>
    <text x="170" y="25" text-anchor="middle" font-size="8" fill="white" font-weight="bold">📋</text>
  </g>
  
  <!-- Security Guarantee Box -->
  <g id="SecurityGuarantee" transform="translate(100, 640)">
    <rect x="0" y="0" width="1000" height="80" fill="#e8f5e8" stroke="green" stroke-width="3" rx="10"/>
    <text x="500" y="25" text-anchor="middle" font-size="16" font-weight="bold" fill="green">QUANTUM SECURITY GUARANTEE</text>
    <text x="50" y="45" font-size="12" fill="green">• Fragment expiration faster than quantum algorithm completion prevents cryptographic attacks</text>
    <text x="50" y="60" font-size="12" fill="green">• Real-time integrity monitoring with immediate destruction upon tampering</text>
    <text x="50" y="75" font-size="12" fill="green">• Self-describing architecture enables autonomous reconstruction with security validation</text>
  </g>
  
  <!-- Arrow Definitions -->
  <defs>
    <marker id="arrowhead" markerWidth="10" markerHeight="7" 
            refX="9" refY="3.5" orient="auto">
      <polygon points="0 0, 10 3.5, 0 7" fill="#333"/>
    </marker>
    <marker id="greenarrow" markerWidth="12" markerHeight="8" 
            refX="10" refY="4" orient="auto">
      <polygon points="0 0, 12 4, 0 8" fill="green"/>
    </marker>
    <marker id="redarrow" markerWidth="12" markerHeight="8" 
            refX="10" refY="4" orient="auto">
      <polygon points="0 0, 12 4, 0 8" fill="red"/>
    </marker>
  </defs>
  
  <!-- Performance Metrics Box -->
  <g id="PerformanceMetrics" transform="translate(50, 750)">
    <rect x="0" y="0" width="1100" height="40" fill="#f0f8ff" stroke="blue" stroke-width="2" rx="5"/>
    <text x="550" y="18" text-anchor="middle" font-size="12" font-weight="bold" fill="blue">SYSTEM PERFORMANCE METRICS</text>
    <text x="50" y="32" font-size="10" fill="blue">Fragment Creation: &lt;1ms | Integrity Check: 0.1ms | Destruction: &lt;10ms | Monitoring Precision: ±50μs</text>
  </g>
</svg>