<?xml version="1.0" encoding="UTF-8"?>
<svg width="800" height="600" xmlns="http://www.w3.org/2000/svg">
  <!-- USPTO Patent Drawing - Figure 1: System Architecture -->
  
  <!-- Title -->
  <text x="400" y="30" text-anchor="middle" font-family="Arial" font-size="14" font-weight="bold">
    FIG. 1 - ADAPTIVE DECISION TREE SYSTEM ARCHITECTURE
  </text>
  
  <!-- Main System Container -->
  <rect x="50" y="50" width="700" height="500" fill="none" stroke="black" stroke-width="2"/>
  <text x="400" y="70" text-anchor="middle" font-family="Arial" font-size="12" font-weight="bold">
    QUANTUM-ENHANCED CYBERSECURITY DECISION SYSTEM
  </text>
  
  <!-- Input Layer (Top) -->
  <rect x="100" y="100" width="600" height="60" fill="none" stroke="black" stroke-width="1.5"/>
  <text x="400" y="120" text-anchor="middle" font-family="Arial" font-size="11" font-weight="bold">
    THREAT DATA INPUT LAYER
  </text>
  <text x="400" y="135" text-anchor="middle" font-family="Arial" font-size="8">
    (10)
  </text>
  
  <!-- Input components -->
  <rect x="120" y="140" width="100" height="15" fill="none" stroke="black" stroke-width="1"/>
  <text x="170" y="150" text-anchor="middle" font-family="Arial" font-size="8">
    Network Traffic (11)
  </text>
  
  <rect x="240" y="140" width="100" height="15" fill="none" stroke="black" stroke-width="1"/>
  <text x="290" y="150" text-anchor="middle" font-family="Arial" font-size="8">
    System Logs (12)
  </text>
  
  <rect x="360" y="140" width="100" height="15" fill="none" stroke="black" stroke-width="1"/>
  <text x="410" y="150" text-anchor="middle" font-family="Arial" font-size="8">
    Threat Intel (13)
  </text>
  
  <rect x="480" y="140" width="100" height="15" fill="none" stroke="black" stroke-width="1"/>
  <text x="530" y="150" text-anchor="middle" font-family="Arial" font-size="8">
    User Behavior (14)
  </text>
  
  <rect x="600" y="140" width="80" height="15" fill="none" stroke="black" stroke-width="1"/>
  <text x="640" y="150" text-anchor="middle" font-family="Arial" font-size="8">
    IoT Data (15)
  </text>
  
  <!-- Adaptive Decision Tree Engine (Center) -->
  <rect x="200" y="180" width="400" height="120" fill="none" stroke="black" stroke-width="2"/>
  <text x="400" y="200" text-anchor="middle" font-family="Arial" font-size="12" font-weight="bold">
    ADAPTIVE DECISION TREE ENGINE
  </text>
  <text x="400" y="215" text-anchor="middle" font-family="Arial" font-size="8">
    (20)
  </text>
  
  <!-- Decision Tree Components -->
  <rect x="220" y="225" width="80" height="30" fill="none" stroke="black" stroke-width="1"/>
  <text x="260" y="238" text-anchor="middle" font-family="Arial" font-size="9">
    Threat
  </text>
  <text x="260" y="248" text-anchor="middle" font-family="Arial" font-size="9">
    Classifier
  </text>
  <text x="260" y="253" text-anchor="middle" font-family="Arial" font-size="8">
    (21)
  </text>
  
  <rect x="320" y="225" width="80" height="30" fill="none" stroke="black" stroke-width="1"/>
  <text x="360" y="238" text-anchor="middle" font-family="Arial" font-size="9">
    Complexity
  </text>
  <text x="360" y="248" text-anchor="middle" font-family="Arial" font-size="9">
    Analyzer
  </text>
  <text x="360" y="253" text-anchor="middle" font-family="Arial" font-size="8">
    (22)
  </text>
  
  <rect x="420" y="225" width="80" height="30" fill="none" stroke="black" stroke-width="1"/>
  <text x="460" y="238" text-anchor="middle" font-family="Arial" font-size="9">
    Resource
  </text>
  <text x="460" y="248" text-anchor="middle" font-family="Arial" font-size="9">
    Monitor
  </text>
  <text x="460" y="253" text-anchor="middle" font-family="Arial" font-size="8">
    (23)
  </text>
  
  <rect x="520" y="225" width="60" height="30" fill="none" stroke="black" stroke-width="1"/>
  <text x="550" y="238" text-anchor="middle" font-family="Arial" font-size="9">
    Learning
  </text>
  <text x="550" y="248" text-anchor="middle" font-family="Arial" font-size="9">
    Engine
  </text>
  <text x="550" y="253" text-anchor="middle" font-family="Arial" font-size="8">
    (24)
  </text>
  
  <!-- Decision Node -->
  <polygon points="400,265 440,285 400,305 360,285" fill="none" stroke="black" stroke-width="2"/>
  <text x="400" y="280" text-anchor="middle" font-family="Arial" font-size="10" font-weight="bold">
    ROUTING
  </text>
  <text x="400" y="293" text-anchor="middle" font-family="Arial" font-size="10" font-weight="bold">
    DECISION
  </text>
  <text x="400" y="300" text-anchor="middle" font-family="Arial" font-size="8">
    (25)
  </text>
  
  <!-- Processing Routes (Bottom) -->
  
  <!-- Classical Route -->
  <rect x="80" y="340" width="150" height="80" fill="none" stroke="black" stroke-width="1.5"/>
  <text x="155" y="360" text-anchor="middle" font-family="Arial" font-size="11" font-weight="bold">
    CLASSICAL
  </text>
  <text x="155" y="375" text-anchor="middle" font-family="Arial" font-size="11" font-weight="bold">
    PROCESSING
  </text>
  <text x="155" y="390" text-anchor="middle" font-family="Arial" font-size="8">
    (30)
  </text>
  
  <rect x="90" y="395" width="60" height="20" fill="none" stroke="black" stroke-width="1"/>
  <text x="120" y="407" text-anchor="middle" font-family="Arial" font-size="8">
    Fast Pipeline (31)
  </text>
  
  <rect x="160" y="395" width="60" height="20" fill="none" stroke="black" stroke-width="1"/>
  <text x="190" y="407" text-anchor="middle" font-family="Arial" font-size="8">
    ML Analytics (32)
  </text>
  
  <!-- Quantum Route -->
  <rect x="570" y="340" width="150" height="80" fill="none" stroke="black" stroke-width="1.5"/>
  <text x="645" y="360" text-anchor="middle" font-family="Arial" font-size="11" font-weight="bold">
    QUANTUM
  </text>
  <text x="645" y="375" text-anchor="middle" font-family="Arial" font-size="11" font-weight="bold">
    PROCESSING
  </text>
  <text x="645" y="390" text-anchor="middle" font-family="Arial" font-size="8">
    (40)
  </text>
  
  <rect x="580" y="395" width="60" height="20" fill="none" stroke="black" stroke-width="1"/>
  <text x="610" y="407" text-anchor="middle" font-family="Arial" font-size="8">
    Q-Algorithms (41)
  </text>
  
  <rect x="650" y="395" width="60" height="20" fill="none" stroke="black" stroke-width="1"/>
  <text x="680" y="407" text-anchor="middle" font-family="Arial" font-size="8">
    Pattern Rec (42)
  </text>
  
  <!-- Hybrid Route -->
  <rect x="280" y="340" width="240" height="80" fill="none" stroke="black" stroke-width="1.5"/>
  <text x="400" y="360" text-anchor="middle" font-family="Arial" font-size="11" font-weight="bold">
    HYBRID PROCESSING
  </text>
  <text x="400" y="375" text-anchor="middle" font-family="Arial" font-size="8">
    (50)
  </text>
  
  <rect x="290" y="385" width="70" height="20" fill="none" stroke="black" stroke-width="1"/>
  <text x="325" y="397" text-anchor="middle" font-family="Arial" font-size="8">
    Parallel Exec (51)
  </text>
  
  <rect x="370" y="385" width="60" height="20" fill="none" stroke="black" stroke-width="1"/>
  <text x="400" y="397" text-anchor="middle" font-family="Arial" font-size="8">
    Sync (52)
  </text>
  
  <rect x="440" y="385" width="70" height="20" fill="none" stroke="black" stroke-width="1"/>
  <text x="475" y="397" text-anchor="middle" font-family="Arial" font-size="8">
    Result Fusion (53)
  </text>
  
  <!-- Performance Feedback System (Bottom) -->
  <rect x="200" y="450" width="400" height="60" fill="none" stroke="black" stroke-width="1.5"/>
  <text x="400" y="470" text-anchor="middle" font-family="Arial" font-size="11" font-weight="bold">
    PERFORMANCE FEEDBACK &amp; LEARNING SYSTEM
  </text>
  <text x="400" y="485" text-anchor="middle" font-family="Arial" font-size="8">
    (60)
  </text>
  
  <rect x="220" y="490" width="80" height="15" fill="none" stroke="black" stroke-width="1"/>
  <text x="260" y="500" text-anchor="middle" font-family="Arial" font-size="8">
    Accuracy Track (61)
  </text>
  
  <rect x="320" y="490" width="80" height="15" fill="none" stroke="black" stroke-width="1"/>
  <text x="360" y="500" text-anchor="middle" font-family="Arial" font-size="8">
    Latency Monitor (62)
  </text>
  
  <rect x="420" y="490" width="80" height="15" fill="none" stroke="black" stroke-width="1"/>
  <text x="460" y="500" text-anchor="middle" font-family="Arial" font-size="8">
    Resource Usage (63)
  </text>
  
  <rect x="520" y="490" width="60" height="15" fill="none" stroke="black" stroke-width="1"/>
  <text x="550" y="500" text-anchor="middle" font-family="Arial" font-size="8">
    Optimizer (64)
  </text>
  
  <!-- Data Flow Arrows -->
  <path d="M 400 160 L 400 180" stroke="black" stroke-width="2" fill="none" marker-end="url(#arrowhead)"/>
  
  <!-- Decision routing arrows -->
  <path d="M 360 285 L 155 340" stroke="black" stroke-width="2" fill="none" marker-end="url(#arrowhead)"/>
  <text x="240" y="315" text-anchor="middle" font-family="Arial" font-size="8">CLASSICAL</text>
  
  <path d="M 400 305 L 400 340" stroke="black" stroke-width="2" fill="none" marker-end="url(#arrowhead)"/>
  <text x="420" y="325" text-anchor="middle" font-family="Arial" font-size="8">HYBRID</text>
  
  <path d="M 440 285 L 645 340" stroke="black" stroke-width="2" fill="none" marker-end="url(#arrowhead)"/>
  <text x="560" y="315" text-anchor="middle" font-family="Arial" font-size="8">QUANTUM</text>
  
  <!-- Feedback loops -->
  <path d="M 155 420 L 155 450" stroke="black" stroke-width="1" fill="none" marker-end="url(#arrowhead)" stroke-dasharray="2,2"/>
  <path d="M 400 420 L 400 450" stroke="black" stroke-width="1" fill="none" marker-end="url(#arrowhead)" stroke-dasharray="2,2"/>
  <path d="M 645 420 L 645 450" stroke="black" stroke-width="1" fill="none" marker-end="url(#arrowhead)" stroke-dasharray="2,2"/>
  
  <!-- Learning feedback -->
  <path d="M 200 480 L 100 480 L 100 240 L 200 240" stroke="black" stroke-width="1" fill="none" marker-end="url(#arrowhead)" stroke-dasharray="3,3"/>
  <text x="120" y="475" text-anchor="middle" font-family="Arial" font-size="8">Learning Loop</text>
  
  <!-- Arrow marker definition -->
  <defs>
    <marker id="arrowhead" markerWidth="10" markerHeight="7" refX="9" refY="3.5" orient="auto">
      <polygon points="0 0, 10 3.5, 0 7" fill="black"/>
    </marker>
  </defs>
  
</svg>