<?xml version="1.0" encoding="UTF-8"?>
<svg width="800" height="600" xmlns="http://www.w3.org/2000/svg">
  <!-- USPTO Patent Drawing - Figure 3: Result Fusion Process Flow -->
  
  <!-- Title -->
  <text x="400" y="30" text-anchor="middle" font-family="Arial" font-size="14" font-weight="bold">
    FIG. 3 - QUANTUM-CLASSICAL RESULT FUSION PROCESS FLOW DIAGRAM
  </text>
  
  <!-- Main Container -->
  <rect x="50" y="50" width="700" height="500" fill="none" stroke="black" stroke-width="2"/>
  <text x="400" y="70" text-anchor="middle" font-family="Arial" font-size="12" font-weight="bold">
    RESULT FUSION ALGORITHM PROCESSING WORKFLOW
  </text>
  
  <!-- START -->
  <ellipse cx="150" cy="120" rx="40" ry="20" fill="none" stroke="black" stroke-width="2"/>
  <text x="150" y="125" text-anchor="middle" font-family="Arial" font-size="10" font-weight="bold">START</text>
  
  <!-- Quantum Results Input -->
  <rect x="100" y="160" width="100" height="40" fill="none" stroke="black" stroke-width="1.5"/>
  <text x="150" y="177" text-anchor="middle" font-family="Arial" font-size="9">QUANTUM RESULTS</text>
  <text x="150" y="187" text-anchor="middle" font-family="Arial" font-size="9">INPUT (Q1)</text>
  
  <!-- Classical Results Input -->
  <rect x="550" y="160" width="100" height="40" fill="none" stroke="black" stroke-width="1.5"/>
  <text x="600" y="177" text-anchor="middle" font-family="Arial" font-size="9">CLASSICAL RESULTS</text>
  <text x="600" y="187" text-anchor="middle" font-family="Arial" font-size="9">INPUT (C1)</text>
  
  <!-- Correlation Analysis -->
  <rect x="300" y="220" width="120" height="40" fill="none" stroke="black" stroke-width="1.5"/>
  <text x="360" y="237" text-anchor="middle" font-family="Arial" font-size="9">CORRELATION</text>
  <text x="360" y="247" text-anchor="middle" font-family="Arial" font-size="9">ANALYSIS (F1)</text>
  
  <!-- Weight Calculation -->
  <rect x="150" y="300" width="120" height="40" fill="none" stroke="black" stroke-width="1.5"/>
  <text x="210" y="317" text-anchor="middle" font-family="Arial" font-size="9">WEIGHT</text>
  <text x="210" y="327" text-anchor="middle" font-family="Arial" font-size="9">CALCULATION (F2)</text>
  
  <!-- Confidence Scoring -->
  <rect x="300" y="300" width="120" height="40" fill="none" stroke="black" stroke-width="1.5"/>
  <text x="360" y="317" text-anchor="middle" font-family="Arial" font-size="9">CONFIDENCE</text>
  <text x="360" y="327" text-anchor="middle" font-family="Arial" font-size="9">SCORING (F3)</text>
  
  <!-- Result Fusion -->
  <rect x="450" y="300" width="120" height="40" fill="none" stroke="black" stroke-width="1.5"/>
  <text x="510" y="317" text-anchor="middle" font-family="Arial" font-size="9">RESULT</text>
  <text x="510" y="327" text-anchor="middle" font-family="Arial" font-size="9">FUSION (F4)</text>
  
  <!-- Decision Diamond -->
  <polygon points="360,380 410,400 360,420 310,400" fill="none" stroke="black" stroke-width="1.5"/>
  <text x="360" y="398" text-anchor="middle" font-family="Arial" font-size="8">QUALITY</text>
  <text x="360" y="408" text-anchor="middle" font-family="Arial" font-size="8">OK? (D1)</text>
  
  <!-- Output Generation -->
  <rect x="300" y="450" width="120" height="40" fill="none" stroke="black" stroke-width="1.5"/>
  <text x="360" y="467" text-anchor="middle" font-family="Arial" font-size="9">OUTPUT</text>
  <text x="360" y="477" text-anchor="middle" font-family="Arial" font-size="9">GENERATION (O1)</text>
  
  <!-- END -->
  <ellipse cx="360" cy="530" rx="40" ry="20" fill="none" stroke="black" stroke-width="2"/>
  <text x="360" y="535" text-anchor="middle" font-family="Arial" font-size="10" font-weight="bold">END</text>
  
  <!-- Flow Arrows -->
  <path d="M 150 140 L 150 160" stroke="black" stroke-width="2" fill="none" marker-end="url(#arrowhead)"/>
  <path d="M 150 200 L 320 220" stroke="black" stroke-width="2" fill="none" marker-end="url(#arrowhead)"/>
  <path d="M 600 200 L 400 220" stroke="black" stroke-width="2" fill="none" marker-end="url(#arrowhead)"/>
  <path d="M 360 260 L 210 300" stroke="black" stroke-width="2" fill="none" marker-end="url(#arrowhead)"/>
  <path d="M 360 260 L 360 300" stroke="black" stroke-width="2" fill="none" marker-end="url(#arrowhead)"/>
  <path d="M 360 260 L 510 300" stroke="black" stroke-width="2" fill="none" marker-end="url(#arrowhead)"/>
  <path d="M 210 340 L 340 380" stroke="black" stroke-width="2" fill="none" marker-end="url(#arrowhead)"/>
  <path d="M 360 340 L 360 380" stroke="black" stroke-width="2" fill="none" marker-end="url(#arrowhead)"/>
  <path d="M 510 340 L 380 380" stroke="black" stroke-width="2" fill="none" marker-end="url(#arrowhead)"/>
  <path d="M 360 420 L 360 450" stroke="black" stroke-width="2" fill="none" marker-end="url(#arrowhead)"/>
  <path d="M 360 490 L 360 510" stroke="black" stroke-width="2" fill="none" marker-end="url(#arrowhead)"/>
  
  <!-- YES Label -->
  <text x="370" y="435" font-family="Arial" font-size="8">YES</text>
  
  <!-- Feedback Loop (NO) -->
  <path d="M 310 400 L 80 400 L 80 240 L 100 240" stroke="black" stroke-width="1" fill="none" marker-end="url(#arrowhead)" stroke-dasharray="3,3"/>
  <text x="200" y="393" font-family="Arial" font-size="8">NO - REPROCESS</text>
  
  <!-- Performance Metrics -->
  <rect x="60" y="420" width="120" height="80" fill="none" stroke="black" stroke-width="1" stroke-dasharray="2,2"/>
  <text x="120" y="435" text-anchor="middle" font-family="Arial" font-size="8" font-weight="bold">PERFORMANCE METRICS</text>
  <text x="120" y="448" text-anchor="middle" font-family="Arial" font-size="7">Fusion Time: 25μs</text>
  <text x="120" y="458" text-anchor="middle" font-family="Arial" font-size="7">Accuracy: 99.7%</text>
  <text x="120" y="468" text-anchor="middle" font-family="Arial" font-size="7">Quantum Advantage: 12x</text>
  <text x="120" y="478" text-anchor="middle" font-family="Arial" font-size="7">Confidence: 98.2%</text>
  <text x="120" y="488" text-anchor="middle" font-family="Arial" font-size="7">Throughput: 100M/sec</text>
  
  <!-- Status Information -->
  <rect x="60" y="510" width="680" height="30" fill="none" stroke="black" stroke-width="1"/>
  <text x="400" y="525" text-anchor="middle" font-family="Arial" font-size="9" font-weight="bold">
    FUSION ALGORITHM STATUS: ACTIVE | PROCESSING EFFICIENCY: 97.8% | QUALITY ASSURANCE: PASSED
  </text>
  <text x="400" y="535" text-anchor="middle" font-family="Arial" font-size="8">
    Advanced quantum-classical fusion provides optimal balance between accuracy, speed, and reliability
  </text>
  
  <!-- Arrow marker definition -->
  <defs>
    <marker id="arrowhead" markerWidth="10" markerHeight="7" refX="9" refY="3.5" orient="auto">
      <polygon points="0 0, 10 3.5, 0 7" fill="black"/>
    </marker>
  </defs>
  
</svg>