<?xml version="1.0" encoding="UTF-8"?>
<svg width="1200" height="900" viewBox="0 0 1200 900" xmlns="http://www.w3.org/2000/svg">
  <defs>
    <style>
      .title-text { font-family: Arial, sans-serif; font-size: 18px; font-weight: bold; text-anchor: middle; }
      .system-text { font-family: Arial, sans-serif; font-size: 14px; font-weight: bold; text-anchor: middle; }
      .component-text { font-family: Arial, sans-serif; font-size: 12px; text-anchor: middle; }
      .detail-text { font-family: Arial, sans-serif; font-size: 10px; text-anchor: middle; }
      .arrow { marker-end: url(#arrowhead); stroke: #333; stroke-width: 2; fill: none; }
      .bidirectional { marker-start: url(#arrowhead); marker-end: url(#arrowhead); stroke: #333; stroke-width: 2; fill: none; }
      .api-request { fill: #ffebee; stroke: #f44336; stroke-width: 2; rx: 8; }
      .quantum-crypto { fill: #e8f5e8; stroke: #4caf50; stroke-width: 2; rx: 8; }
      .behavioral-analysis { fill: #e3f2fd; stroke: #2196f3; stroke-width: 2; rx: 8; }
      .ai-security { fill: #f3e5f5; stroke: #9c27b0; stroke-width: 2; rx: 8; }
      .enterprise-integration { fill: #fff3e0; stroke: #ff9800; stroke-width: 2; rx: 8; }
      .temporal-validation { fill: #fce4ec; stroke: #e91e63; stroke-width: 2; rx: 8; }
    </style>
    <marker id="arrowhead" markerWidth="10" markerHeight="7" refX="10" refY="3.5" orient="auto">
      <polygon points="0 0, 10 3.5, 0 7" fill="#333" />
    </marker>
  </defs>
  
  <!-- Title -->
  <text x="600" y="25" class="title-text">FIGURE 1: Quantum-Resistant API Authentication System Architecture</text>
  
  <!-- API Request Entry Point -->
  <rect x="50" y="80" width="200" height="80" class="api-request"/>
  <text x="150" y="110" class="system-text">API Request Entry</text>
  <text x="150" y="130" class="component-text">• Request Analysis</text>
  <text x="150" y="145" class="component-text">• Context Extraction</text>
  
  <!-- Quantum-Resistant Protocol Orderer -->
  <rect x="320" y="60" width="220" height="120" class="quantum-crypto"/>
  <text x="430" y="85" class="system-text">Quantum-Resistant</text>
  <text x="430" y="100" class="system-text">Protocol Orderer</text>
  <text x="430" y="125" class="component-text">• CRYSTALS-Kyber KEM</text>
  <text x="430" y="140" class="component-text">• CRYSTALS-Dilithium Sigs</text>
  <text x="430" y="155" class="component-text">• SPHINCS+ Stateless</text>
  <text x="430" y="170" class="component-text">• Protocol Optimization</text>
  
  <!-- Real-Time Behavioral Analyzer -->
  <rect x="600" y="60" width="220" height="120" class="behavioral-analysis"/>
  <text x="710" y="85" class="system-text">Real-Time Behavioral</text>
  <text x="710" y="100" class="system-text">Analyzer</text>
  <text x="710" y="125" class="component-text">• Behavioral Features</text>
  <text x="710" y="140" class="component-text">• Temporal Patterns</text>
  <text x="710" y="155" class="component-text">• Anomaly Detection</text>
  <text x="710" y="170" class="component-text">• Risk Assessment</text>
  
  <!-- Adaptive Multi-Layer AI Security -->
  <rect x="880" y="60" width="220" height="120" class="ai-security"/>
  <text x="990" y="85" class="system-text">Adaptive Multi-Layer</text>
  <text x="990" y="100" class="system-text">AI Security</text>
  <text x="990" y="125" class="component-text">• AI Threat Detection</text>
  <text x="990" y="140" class="component-text">• Access Control</text>
  <text x="990" y="155" class="component-text">• Rate Limiting</text>
  <text x="990" y="170" class="component-text">• Anomaly Response</text>
  
  <!-- Dynamic Authentication Strengthener -->
  <rect x="320" y="220" width="220" height="120" class="quantum-crypto"/>
  <text x="430" y="245" class="system-text">Dynamic Authentication</text>
  <text x="430" y="260" class="system-text">Strengthener</text>
  <text x="430" y="285" class="component-text">• Risk Score Calculation</text>
  <text x="430" y="300" class="component-text">• Adaptive MFA</text>
  <text x="430" y="315" class="component-text">• Contextual Challenges</text>
  <text x="430" y="330" class="component-text">• Token Strengthening</text>
  
  <!-- Enterprise Integration Framework -->
  <rect x="600" y="220" width="220" height="120" class="enterprise-integration"/>
  <text x="710" y="245" class="system-text">Enterprise Integration</text>
  <text x="710" y="260" class="system-text">Framework</text>
  <text x="710" y="285" class="component-text">• Identity Management</text>
  <text x="710" y="300" class="component-text">• SIEM Integration</text>
  <text x="710" y="315" class="component-text">• Policy Compliance</text>
  <text x="710" y="330" class="component-text">• Threat Intelligence</text>
  
  <!-- Temporal Protocol Validator -->
  <rect x="880" y="220" width="220" height="120" class="temporal-validation"/>
  <text x="990" y="245" class="system-text">Temporal Protocol</text>
  <text x="990" y="260" class="system-text">Validator</text>
  <text x="990" y="285" class="component-text">• Cryptographic Timestamps</text>
  <text x="990" y="300" class="component-text">• Replay Detection</text>
  <text x="990" y="315" class="component-text">• Temporal Consistency</text>
  <text x="990" y="330" class="component-text">• Security Policies</text>
  
  <!-- Contextual Security Orchestrator -->
  <rect x="460" y="380" width="280" height="100" class="ai-security"/>
  <text x="600" y="410" class="system-text">Contextual Security Orchestrator</text>
  <text x="600" y="435" class="component-text">• Context Analysis • Security Coordination</text>
  <text x="600" y="450" class="component-text">• Adaptive Policies • Response Orchestration</text>
  <text x="600" y="465" class="component-text">• Intelligence Integration • Performance Optimization</text>
  
  <!-- Authentication Result -->
  <rect x="500" y="520" width="200" height="80" class="api-request"/>
  <text x="600" y="550" class="system-text">Authentication Result</text>
  <text x="600" y="570" class="component-text">• Security Token</text>
  <text x="600" y="585" class="component-text">• Access Permissions</text>
  
  <!-- Supporting Systems -->
  <rect x="50" y="220" width="200" height="120" class="behavioral-analysis"/>
  <text x="150" y="245" class="system-text">Supporting Systems</text>
  <text x="150" y="270" class="component-text">• Performance Monitor</text>
  <text x="150" y="285" class="component-text">• Audit Manager</text>
  <text x="150" y="300" class="component-text">• Analytics Engine</text>
  <text x="150" y="315" class="component-text">• Threat Intelligence</text>
  <text x="150" y="330" class="component-text">• Compliance Manager</text>
  
  <!-- Connection Lines -->
  <!-- Request flow -->
  <line x1="250" y1="120" x2="320" y2="120" class="arrow"/>
  <line x1="540" y1="120" x2="600" y2="120" class="arrow"/>
  <line x1="820" y1="120" x2="880" y2="120" class="arrow"/>
  
  <!-- Vertical flow -->
  <line x1="430" y1="180" x2="430" y2="220" class="arrow"/>
  <line x1="710" y1="180" x2="710" y2="220" class="arrow"/>
  <line x1="990" y1="180" x2="990" y2="220" class="arrow"/>
  
  <!-- To orchestrator -->
  <line x1="430" y1="340" x2="520" y2="380" class="arrow"/>
  <line x1="710" y1="340" x2="650" y2="380" class="arrow"/>
  <line x1="990" y1="340" x2="680" y2="380" class="arrow"/>
  
  <!-- To result -->
  <line x1="600" y1="480" x2="600" y2="520" class="arrow"/>
  
  <!-- Supporting systems connections -->
  <line x1="250" y1="280" x2="320" y2="280" class="bidirectional"/>
  <line x1="150" y1="340" x2="150" y2="420" class="arrow"/>
  <line x1="150" y1="420" x2="460" y2="430" class="arrow"/>
  
  <!-- Data Flow Indicators -->
  <text x="285" y="110" class="detail-text">Protocol Analysis</text>
  <text x="570" y="110" class="detail-text">Behavior Analysis</text>
  <text x="850" y="110" class="detail-text">AI Processing</text>
  
  <text x="430" y="200" class="detail-text">Quantum-Safe</text>
  <text x="710" y="200" class="detail-text">Behavioral</text>
  <text x="990" y="200" class="detail-text">AI Enhanced</text>
  
  <text x="470" y="365" class="detail-text">Strengthening</text>
  <text x="680" y="365" class="detail-text">Integration</text>
  <text x="840" y="365" class="detail-text">Validation</text>
  
  <text x="600" y="500" class="detail-text">Orchestrated Security</text>
  
  <!-- Security Levels -->
  <rect x="50" y="620" width="1100" height="240" fill="#f8f9fa" stroke="#dee2e6" stroke-width="1" rx="5"/>
  <text x="600" y="645" class="system-text">Security Architecture Layers</text>
  
  <!-- Layer 1: Quantum Resistance -->
  <rect x="80" y="670" width="200" height="80" class="quantum-crypto"/>
  <text x="180" y="695" class="system-text">Layer 1: Quantum</text>
  <text x="180" y="710" class="system-text">Resistance</text>
  <text x="180" y="730" class="detail-text">• Post-quantum algorithms</text>
  <text x="180" y="742" class="detail-text">• Future-proof security</text>
  
  <!-- Layer 2: Behavioral Intelligence -->
  <rect x="320" y="670" width="200" height="80" class="behavioral-analysis"/>
  <text x="420" y="695" class="system-text">Layer 2: Behavioral</text>
  <text x="420" y="710" class="system-text">Intelligence</text>
  <text x="420" y="730" class="detail-text">• Pattern recognition</text>
  <text x="420" y="742" class="detail-text">• Anomaly detection</text>
  
  <!-- Layer 3: AI Security -->
  <rect x="560" y="670" width="200" height="80" class="ai-security"/>
  <text x="660" y="695" class="system-text">Layer 3: AI Security</text>
  <text x="660" y="710" class="system-text">Enhancement</text>
  <text x="660" y="730" class="detail-text">• Adaptive responses</text>
  <text x="660" y="742" class="detail-text">• Threat prediction</text>
  
  <!-- Layer 4: Enterprise Integration -->
  <rect x="800" y="670" width="200" height="80" class="enterprise-integration"/>
  <text x="900" y="695" class="system-text">Layer 4: Enterprise</text>
  <text x="900" y="710" class="system-text">Integration</text>
  <text x="900" y="730" class="detail-text">• Seamless deployment</text>
  <text x="900" y="742" class="detail-text">• Policy compliance</text>
  
  <!-- Performance Metrics -->
  <rect x="80" y="770" width="920" height="70" fill="#e8f5e8" stroke="#4caf50" stroke-width="1" rx="3"/>
  <text x="540" y="790" class="system-text">Performance Characteristics</text>
  
  <text x="150" y="810" class="component-text">Authentication Latency</text>
  <text x="150" y="825" class="detail-text">&lt; 50ms typical</text>
  
  <text x="350" y="810" class="component-text">Throughput Capacity</text>
  <text x="350" y="825" class="detail-text">100K+ requests/sec</text>
  
  <text x="550" y="810" class="component-text">Security Strength</text>
  <text x="550" y="825" class="detail-text">256-bit quantum-safe</text>
  
  <text x="750" y="810" class="component-text">False Positive Rate</text>
  <text x="750" y="825" class="detail-text">&lt; 0.01%</text>
  
  <text x="900" y="810" class="component-text">Availability</text>
  <text x="900" y="825" class="detail-text">99.99% uptime</text>

</svg>