<?xml version="1.0" encoding="UTF-8"?>
<svg width="1200" height="800" viewBox="0 0 1200 800" xmlns="http://www.w3.org/2000/svg">
  <defs>
    <style>
      .title-text { font-family: Arial, sans-serif; font-size: 18px; font-weight: bold; text-anchor: middle; }
      .system-text { font-family: Arial, sans-serif; font-size: 14px; font-weight: bold; text-anchor: middle; }
      .component-text { font-family: Arial, sans-serif; font-size: 12px; text-anchor: middle; }
      .detail-text { font-family: Arial, sans-serif; font-size: 10px; text-anchor: middle; }
      .arrow { marker-end: url(#arrowhead); stroke: #333; stroke-width: 2; fill: none; }
      .consensus-engine { fill: #e8f5e8; stroke: #4caf50; stroke-width: 2; rx: 8; }
      .witness-network { fill: #e3f2fd; stroke: #2196f3; stroke-width: 2; rx: 8; }
      .smart-contract { fill: #f3e5f5; stroke: #9c27b0; stroke-width: 2; rx: 8; }
      .cross-chain { fill: #fff3e0; stroke: #ff9800; stroke-width: 2; rx: 8; }
    </style>
    <marker id="arrowhead" markerWidth="10" markerHeight="7" refX="10" refY="3.5" orient="auto">
      <polygon points="0 0, 10 3.5, 0 7" fill="#333" />
    </marker>
  </defs>
  
  <!-- Title -->
  <text x="600" y="25" class="title-text">FIGURE 1: Quantum-Safe Blockchain Consensus System Architecture</text>
  
  <!-- Quantum-Safe Consensus Engine -->
  <rect x="50" y="80" width="250" height="120" class="consensus-engine"/>
  <text x="175" y="110" class="system-text">Quantum-Safe</text>
  <text x="175" y="125" class="system-text">Consensus Engine</text>
  <text x="175" y="150" class="component-text">• CRYSTALS-Dilithium Signatures</text>
  <text x="175" y="165" class="component-text">• Quantum-Safe BFT</text>
  <text x="175" y="180" class="component-text">• Post-Quantum PoS</text>
  <text x="175" y="195" class="component-text">• Validator Management</text>
  
  <!-- Temporal Witness Network -->
  <rect x="350" y="80" width="250" height="120" class="witness-network"/>
  <text x="475" y="110" class="system-text">Temporal Witness</text>
  <text x="475" y="125" class="system-text">Network</text>
  <text x="475" y="150" class="component-text">• Distributed Witnesses</text>
  <text x="475" y="165" class="component-text">• Cryptographic Timestamps</text>
  <text x="475" y="180" class="component-text">• Temporal Validation</text>
  <text x="475" y="195" class="component-text">• Consensus Integrity</text>
  
  <!-- AI Smart Contract Analyzer -->
  <rect x="650" y="80" width="250" height="120" class="smart-contract"/>
  <text x="775" y="110" class="system-text">AI Smart Contract</text>
  <text x="775" y="125" class="system-text">Behavioral Analyzer</text>
  <text x="775" y="150" class="component-text">• Behavioral Cryptography</text>
  <text x="775" y="165" class="component-text">• Contract Validation</text>
  <text x="775" y="180" class="component-text">• Threat Detection</text>
  <text x="775" y="195" class="component-text">• Security Analysis</text>
  
  <!-- Cross-Chain Coordinator -->
  <rect x="950" y="80" width="200" height="120" class="cross-chain"/>
  <text x="1050" y="110" class="system-text">Cross-Chain</text>
  <text x="1050" y="125" class="system-text">Coordinator</text>
  <text x="1050" y="150" class="component-text">• Quantum Interoperability</text>
  <text x="1050" y="165" class="component-text">• Multi-Chain Consensus</text>
  <text x="1050" y="180" class="component-text">• Bridge Security</text>
  <text x="1050" y="195" class="component-text">• Protocol Coordination</text>
  
  <!-- Block Processing Pipeline -->
  <rect x="200" y="300" width="800" height="100" class="consensus-engine"/>
  <text x="600" y="330" class="system-text">Quantum-Safe Block Processing Pipeline</text>
  <text x="300" y="355" class="component-text">Block Proposal</text>
  <text x="500" y="355" class="component-text">Validation</text>
  <text x="700" y="355" class="component-text">Consensus</text>
  <text x="900" y="355" class="component-text">Finalization</text>
  
  <!-- Validation Steps -->
  <text x="300" y="375" class="detail-text">• Quantum-safe signatures</text>
  <text x="500" y="375" class="detail-text">• Temporal witnesses</text>
  <text x="700" y="375" class="detail-text">• BFT consensus</text>
  <text x="900" y="375" class="detail-text">• Cross-chain sync</text>
  
  <!-- Connection Lines -->
  <line x1="300" y1="140" x2="350" y2="140" class="arrow"/>
  <line x1="600" y1="140" x2="650" y2="140" class="arrow"/>
  <line x1="900" y1="140" x2="950" y2="140" class="arrow"/>
  
  <!-- To processing pipeline -->
  <line x1="175" y1="200" x2="250" y2="300" class="arrow"/>
  <line x1="475" y1="200" x2="500" y2="300" class="arrow"/>
  <line x1="775" y1="200" x2="750" y2="300" class="arrow"/>
  <line x1="1050" y1="200" x2="950" y2="300" class="arrow"/>
  
  <!-- Security Features -->
  <rect x="50" y="500" width="1100" height="250" fill="#f8f9fa" stroke="#dee2e6" stroke-width="1" rx="5"/>
  <text x="600" y="530" class="system-text">Quantum-Safe Security Features</text>
  
  <rect x="80" y="560" width="220" height="80" class="consensus-engine"/>
  <text x="190" y="585" class="system-text">Post-Quantum</text>
  <text x="190" y="600" class="system-text">Cryptography</text>
  <text x="190" y="620" class="detail-text">• CRYSTALS-Dilithium</text>
  <text x="190" y="632" class="detail-text">• Quantum-resistant signatures</text>
  
  <rect x="320" y="560" width="220" height="80" class="witness-network"/>
  <text x="430" y="585" class="system-text">Temporal</text>
  <text x="430" y="600" class="system-text">Validation</text>
  <text x="430" y="620" class="detail-text">• Cryptographic timestamps</text>
  <text x="430" y="632" class="detail-text">• Replay attack prevention</text>
  
  <rect x="560" y="560" width="220" height="80" class="smart-contract"/>
  <text x="670" y="585" class="system-text">AI Security</text>
  <text x="670" y="600" class="system-text">Analysis</text>
  <text x="670" y="620" class="detail-text">• Behavioral monitoring</text>
  <text x="670" y="632" class="detail-text">• Threat prediction</text>
  
  <rect x="800" y="560" width="220" height="80" class="cross-chain"/>
  <text x="910" y="585" class="system-text">Cross-Chain</text>
  <text x="910" y="600" class="system-text">Security</text>
  <text x="910" y="620" class="detail-text">• Multi-chain validation</text>
  <text x="910" y="632" class="detail-text">• Bridge protection</text>
  
  <!-- Performance Metrics -->
  <rect x="80" y="660" width="920" height="70" fill="#e8f5e8" stroke="#4caf50" stroke-width="1" rx="3"/>
  <text x="540" y="680" class="system-text">Performance Characteristics</text>
  
  <text x="150" y="700" class="component-text">Block Time</text>
  <text x="150" y="715" class="detail-text">3-6 seconds</text>
  
  <text x="350" y="700" class="component-text">TPS Capacity</text>
  <text x="350" y="715" class="detail-text">10,000+ transactions/sec</text>
  
  <text x="550" y="700" class="component-text">Quantum Security</text>
  <text x="550" y="715" class="detail-text">256-bit equivalent</text>
  
  <text x="750" y="700" class="component-text">Finality</text>
  <text x="750" y="715" class="detail-text">1 block confirmation</text>
  
  <text x="900" y="700" class="component-text">Cross-Chain Latency</text>
  <text x="900" y="715" class="detail-text">&lt; 30 seconds</text>

</svg>