<?xml version="1.0" encoding="UTF-8"?>
<svg width="1200" height="900" viewBox="0 0 1200 900" xmlns="http://www.w3.org/2000/svg">
  <defs>
    <style>
      .title-text { font-family: Arial, sans-serif; font-size: 18px; font-weight: bold; text-anchor: middle; }
      .system-text { font-family: Arial, sans-serif; font-size: 14px; font-weight: bold; text-anchor: middle; }
      .component-text { font-family: Arial, sans-serif; font-size: 12px; text-anchor: middle; }
      .detail-text { font-family: Arial, sans-serif; font-size: 10px; text-anchor: middle; }
      .arrow { marker-end: url(#arrowhead); stroke: #333; stroke-width: 2; fill: none; }
      .smart-contract { fill: #e8f5e8; stroke: #4caf50; stroke-width: 2; rx: 8; }
      .behavioral-analysis { fill: #e3f2fd; stroke: #2196f3; stroke-width: 2; rx: 8; }
      .ai-validation { fill: #f3e5f5; stroke: #9c27b0; stroke-width: 2; rx: 8; }
      .threat-detection { fill: #ffebee; stroke: #f44336; stroke-width: 2; rx: 8; }
      .cryptographic { fill: #fff3e0; stroke: #ff9800; stroke-width: 2; rx: 8; }
    </style>
    <marker id="arrowhead" markerWidth="10" markerHeight="7" refX="10" refY="3.5" orient="auto">
      <polygon points="0 0, 10 3.5, 0 7" fill="#333" />
    </marker>
  </defs>
  
  <!-- Title -->
  <text x="600" y="25" class="title-text">FIGURE 3: AI-Driven Smart Contract Behavioral Analysis</text>
  
  <!-- Smart Contract Input -->
  <rect x="50" y="80" width="200" height="120" class="smart-contract"/>
  <text x="150" y="110" class="system-text">Smart Contract</text>
  <text x="150" y="125" class="system-text">Deployment</text>
  <text x="150" y="150" class="component-text">• Contract bytecode</text>
  <text x="150" y="165" class="component-text">• Function signatures</text>
  <text x="150" y="180" class="component-text">• State variables</text>
  <text x="150" y="195" class="component-text">• Event definitions</text>
  
  <!-- Behavioral Pattern Extraction -->
  <rect x="300" y="60" width="220" height="160" class="behavioral-analysis"/>
  <text x="410" y="90" class="system-text">Behavioral Pattern</text>
  <text x="410" y="105" class="system-text">Extraction</text>
  <text x="410" y="130" class="component-text">Code Analysis:</text>
  <text x="410" y="145" class="detail-text">• Control flow analysis</text>
  <text x="410" y="157" class="detail-text">• Data flow patterns</text>
  <text x="410" y="169" class="detail-text">• Function call graphs</text>
  
  <text x="410" y="185" class="component-text">Execution Patterns:</text>
  <text x="410" y="200" class="detail-text">• Gas consumption patterns</text>
  <text x="410" y="212" class="detail-text">• State transition analysis</text>
  
  <!-- AI Behavioral Validation -->
  <rect x="570" y="60" width="220" height="160" class="ai-validation"/>
  <text x="680" y="90" class="system-text">AI Behavioral</text>
  <text x="680" y="105" class="system-text">Validation</text>
  <text x="680" y="130" class="component-text">Machine Learning Models:</text>
  <text x="680" y="145" class="detail-text">• Neural network analysis</text>
  <text x="680" y="157" class="detail-text">• Pattern classification</text>
  <text x="680" y="169" class="detail-text">• Anomaly detection</text>
  
  <text x="680" y="185" class="component-text">Behavioral Scoring:</text>
  <text x="680" y="200" class="detail-text">• Risk assessment</text>
  <text x="680" y="212" class="detail-text">• Compliance validation</text>
  
  <!-- Threat Detection Engine -->
  <rect x="840" y="60" width="220" height="160" class="threat-detection"/>
  <text x="950" y="90" class="system-text">Threat Detection</text>
  <text x="950" y="105" class="system-text">Engine</text>
  <text x="950" y="130" class="component-text">Vulnerability Scanning:</text>
  <text x="950" y="145" class="detail-text">• Reentrancy attacks</text>
  <text x="950" y="157" class="detail-text">• Integer overflow/underflow</text>
  <text x="950" y="169" class="detail-text">• Access control issues</text>
  
  <text x="950" y="185" class="component-text">Malicious Pattern Detection:</text>
  <text x="950" y="200" class="detail-text">• Ponzi schemes</text>
  <text x="950" y="212" class="detail-text">• Backdoor analysis</text>
  
  <!-- Runtime Behavioral Monitoring -->
  <rect x="200" y="280" width="280" height="140" class="behavioral-analysis"/>
  <text x="340" y="310" class="system-text">Runtime Behavioral</text>
  <text x="340" y="325" class="system-text">Monitoring</text>
  <text x="340" y="350" class="component-text">Execution Analysis:</text>
  <text x="340" y="365" class="detail-text">• Transaction patterns</text>
  <text x="340" y="377" class="detail-text">• Gas usage monitoring</text>
  <text x="340" y="389" class="detail-text">• Event emission patterns</text>
  
  <text x="340" y="405" class="component-text">State Change Monitoring:</text>
  <text x="340" y="417" class="detail-text">• Variable modification tracking</text>
  
  <!-- Cryptographic Behavioral Validation -->
  <rect x="520" y="280" width="280" height="140" class="cryptographic"/>
  <text x="660" y="310" class="system-text">Cryptographic Behavioral</text>
  <text x="660" y="325" class="system-text">Validation</text>
  <text x="660" y="350" class="component-text">Quantum-Safe Signatures:</text>
  <text x="660" y="365" class="detail-text">• CRYSTALS-Dilithium validation</text>
  <text x="660" y="377" class="detail-text">• Behavioral proof generation</text>
  <text x="660" y="389" class="detail-text">• Integrity verification</text>
  
  <text x="660" y="405" class="component-text">Cryptographic Attestation:</text>
  <text x="660" y="417" class="detail-text">• Behavioral hash commitment</text>
  
  <!-- AI Learning and Adaptation -->
  <rect x="850" y="280" width="250" height="140" class="ai-validation"/>
  <text x="975" y="310" class="system-text">AI Learning &</text>
  <text x="975" y="325" class="system-text">Adaptation</text>
  <text x="975" y="350" class="component-text">Continuous Learning:</text>
  <text x="975" y="365" class="detail-text">• Pattern evolution</text>
  <text x="975" y="377" class="detail-text">• Model updates</text>
  <text x="975" y="389" class="detail-text">• Threat intelligence</text>
  
  <text x="975" y="405" class="component-text">Adaptive Validation:</text>
  <text x="975" y="417" class="detail-text">• Dynamic threshold adjustment</text>
  
  <!-- Security Assessment Output -->
  <rect x="300" y="480" width="600" height="120" class="ai-validation"/>
  <text x="600" y="510" class="system-text">Behavioral Security Assessment</text>
  <text x="450" y="535" class="component-text">Behavioral Risk Score:</text>
  <text x="450" y="550" class="detail-text">• Overall risk rating (0-100)</text>
  <text x="450" y="562" class="detail-text">• Confidence interval</text>
  <text x="450" y="574" class="detail-text">• Risk categorization</text>
  
  <text x="750" y="535" class="component-text">Security Recommendations:</text>
  <text x="750" y="550" class="detail-text">• Deployment approval/rejection</text>
  <text x="750" y="562" class="detail-text">• Runtime monitoring level</text>
  <text x="750" y="574" class="detail-text">• Additional validation requirements</text>
  
  <text x="600" y="590" class="component-text">Cryptographic Proof of Behavioral Validation</text>
  
  <!-- Connection Lines -->
  <line x1="250" y1="140" x2="300" y2="140" class="arrow"/>
  <line x1="520" y1="140" x2="570" y2="140" class="arrow"/>
  <line x1="790" y1="140" x2="840" y2="140" class="arrow"/>
  
  <line x1="410" y1="220" x2="340" y2="280" class="arrow"/>
  <line x1="680" y1="220" x2="660" y2="280" class="arrow"/>
  <line x1="950" y1="220" x2="975" y2="280" class="arrow"/>
  
  <line x1="340" y1="420" x2="450" y2="480" class="arrow"/>
  <line x1="660" y1="420" x2="650" y2="480" class="arrow"/>
  <line x1="975" y1="420" x2="750" y2="480" class="arrow"/>
  
  <!-- Feedback loop -->
  <line x1="975" y1="280" x2="975" y2="240" class="arrow" stroke-dasharray="3,3"/>
  <line x1="975" y1="240" x2="150" y2="240" class="arrow" stroke-dasharray="3,3"/>
  <line x1="150" y1="240" x2="150" y2="200" class="arrow" stroke-dasharray="3,3"/>
  
  <!-- Labels -->
  <text x="275" y="130" class="detail-text">Pattern</text>
  <text x="275" y="140" class="detail-text">Analysis</text>
  
  <text x="545" y="130" class="detail-text">AI</text>
  <text x="545" y="140" class="detail-text">Validation</text>
  
  <text x="815" y="130" class="detail-text">Threat</text>
  <text x="815" y="140" class="detail-text">Detection</text>
  
  <text x="600" y="230" class="detail-text" fill="#666">Continuous Learning Feedback Loop</text>
  
  <!-- AI Model Details -->
  <rect x="50" y="660" width="1100" height="200" fill="#f8f9fa" stroke="#dee2e6" stroke-width="1" rx="5"/>
  <text x="600" y="685" class="system-text">AI Models and Behavioral Patterns</text>
  
  <!-- Neural Network Architecture -->
  <rect x="80" y="710" width="200" height="80" class="ai-validation"/>
  <text x="180" y="735" class="system-text">Neural Networks</text>
  <text x="180" y="755" class="detail-text">• LSTM for sequences</text>
  <text x="180" y="767" class="detail-text">• CNN for code patterns</text>
  <text x="180" y="779" class="detail-text">• Transformer models</text>
  
  <!-- Machine Learning Models -->
  <rect x="300" y="710" width="200" height="80" class="behavioral-analysis"/>
  <text x="400" y="735" class="system-text">ML Classification</text>
  <text x="400" y="755" class="detail-text">• Random Forest</text>
  <text x="400" y="767" class="detail-text">• SVM classification</text>
  <text x="400" y="779" class="detail-text">• Gradient boosting</text>
  
  <!-- Behavioral Patterns -->
  <rect x="520" y="710" width="200" height="80" class="smart-contract"/>
  <text x="620" y="735" class="system-text">Behavioral Patterns</text>
  <text x="620" y="755" class="detail-text">• Execution sequences</text>
  <text x="620" y="767" class="detail-text">• State transitions</text>
  <text x="620" y="779" class="detail-text">• Interaction patterns</text>
  
  <!-- Threat Signatures -->
  <rect x="740" y="710" width="200" height="80" class="threat-detection"/>
  <text x="840" y="735" class="system-text">Threat Signatures</text>
  <text x="840" y="755" class="detail-text">• Known attack patterns</text>
  <text x="840" y="767" class="detail-text">• Malicious behaviors</text>
  <text x="840" y="779" class="detail-text">• Vulnerability indicators</text>
  
  <!-- Cryptographic Validation -->
  <rect x="960" y="710" width="160" height="80" class="cryptographic"/>
  <text x="1040" y="735" class="system-text">Crypto Validation</text>
  <text x="1040" y="755" class="detail-text">• Quantum signatures</text>
  <text x="1040" y="767" class="detail-text">• Proof generation</text>
  <text x="1040" y="779" class="detail-text">• Integrity checks</text>
  
  <!-- Performance Metrics -->
  <rect x="80" y="810" width="1040" height="30" class="ai-validation"/>
  <text x="200" y="825" class="component-text">Analysis Speed: &lt;100ms</text>
  <text x="400" y="825" class="component-text">Accuracy: 99.2%</text>
  <text x="600" y="825" class="component-text">False Positive: &lt;0.5%</text>
  <text x="800" y="825" class="component-text">Threat Detection: 98.7%</text>
  <text x="1000" y="825" class="component-text">Real-time Monitoring</text>

</svg>