<?xml version="1.0" encoding="UTF-8"?>
<svg width="800" height="600" xmlns="http://www.w3.org/2000/svg">
  <!-- USPTO Patent Drawing - Figure 1: Unified Quantum Hardware Abstraction Layer Architecture -->
  
  <!-- Title -->
  <text x="400" y="30" text-anchor="middle" font-family="Arial" font-size="14" font-weight="bold">
    FIG. 1 - UNIFIED QUANTUM HARDWARE ABSTRACTION LAYER ARCHITECTURE
  </text>
  
  <!-- Main System Container -->
  <rect x="50" y="50" width="700" height="500" fill="none" stroke="black" stroke-width="2"/>
  <text x="400" y="70" text-anchor="middle" font-family="Arial" font-size="12" font-weight="bold">
    QUANTUM CYBERSECURITY HARDWARE ABSTRACTION SYSTEM
  </text>
  
  <!-- Application Layer (Top) -->
  <rect x="100" y="100" width="600" height="60" fill="none" stroke="black" stroke-width="2"/>
  <text x="400" y="120" text-anchor="middle" font-family="Arial" font-size="11" font-weight="bold">
    CYBERSECURITY APPLICATION LAYER
  </text>
  <text x="400" y="135" text-anchor="middle" font-family="Arial" font-size="8">
    (10)
  </text>
  
  <!-- Application Components -->
  <rect x="120" y="140" width="90" height="15" fill="none" stroke="black" stroke-width="1"/>
  <text x="165" y="150" text-anchor="middle" font-family="Arial" font-size="8">
    Threat Detection (11)
  </text>
  
  <rect x="220" y="140" width="90" height="15" fill="none" stroke="black" stroke-width="1"/>
  <text x="265" y="150" text-anchor="middle" font-family="Arial" font-size="8">
    Crypto Analysis (12)
  </text>
  
  <rect x="320" y="140" width="90" height="15" fill="none" stroke="black" stroke-width="1"/>
  <text x="365" y="150" text-anchor="middle" font-family="Arial" font-size="8">
    Pattern Matching (13)
  </text>
  
  <rect x="420" y="140" width="90" height="15" fill="none" stroke="black" stroke-width="1"/>
  <text x="465" y="150" text-anchor="middle" font-family="Arial" font-size="8">
    Anomaly Detection (14)
  </text>
  
  <rect x="520" y="140" width="90" height="15" fill="none" stroke="black" stroke-width="1"/>
  <text x="565" y="150" text-anchor="middle" font-family="Arial" font-size="8">
    Risk Assessment (15)
  </text>
  
  <rect x="620" y="140" width="70" height="15" fill="none" stroke="black" stroke-width="1"/>
  <text x="655" y="150" text-anchor="middle" font-family="Arial" font-size="8">
    ML Models (16)
  </text>
  
  <!-- Hardware Abstraction Layer (Center) -->
  <rect x="100" y="180" width="600" height="200" fill="none" stroke="black" stroke-width="3"/>
  <text x="400" y="205" text-anchor="middle" font-family="Arial" font-size="12" font-weight="bold">
    UNIFIED QUANTUM HARDWARE ABSTRACTION LAYER
  </text>
  <text x="400" y="220" text-anchor="middle" font-family="Arial" font-size="8">
    (20)
  </text>
  
  <!-- Core Processing Engine -->
  <rect x="130" y="240" width="150" height="80" fill="none" stroke="black" stroke-width="2"/>
  <text x="205" y="260" text-anchor="middle" font-family="Arial" font-size="11" font-weight="bold">
    CORE PROCESSING
  </text>
  <text x="205" y="275" text-anchor="middle" font-family="Arial" font-size="11" font-weight="bold">
    ENGINE
  </text>
  <text x="205" y="290" text-anchor="middle" font-family="Arial" font-size="8">
    (21)
  </text>
  
  <rect x="140" y="300" width="60" height="15" fill="none" stroke="black" stroke-width="1"/>
  <text x="170" y="310" text-anchor="middle" font-family="Arial" font-size="8">
    Scheduler (211)
  </text>
  
  <rect x="210" y="300" width="60" height="15" fill="none" stroke="black" stroke-width="1"/>
  <text x="240" y="310" text-anchor="middle" font-family="Arial" font-size="8">
    Router (212)
  </text>
  
  <!-- Integration Layer -->
  <rect x="300" y="240" width="180" height="80" fill="none" stroke="black" stroke-width="2"/>
  <text x="390" y="260" text-anchor="middle" font-family="Arial" font-size="11" font-weight="bold">
    INTEGRATION LAYER
  </text>
  <text x="390" y="275" text-anchor="middle" font-family="Arial" font-size="8">
    (22)
  </text>
  
  <rect x="310" y="285" width="70" height="15" fill="none" stroke="black" stroke-width="1"/>
  <text x="345" y="295" text-anchor="middle" font-family="Arial" font-size="8">
    API Gateway (221)
  </text>
  
  <rect x="390" y="285" width="80" height="15" fill="none" stroke="black" stroke-width="1"/>
  <text x="430" y="295" text-anchor="middle" font-family="Arial" font-size="8">
    Protocol Bridge (222)
  </text>
  
  <rect x="310" y="305" width="70" height="15" fill="none" stroke="black" stroke-width="1"/>
  <text x="345" y="315" text-anchor="middle" font-family="Arial" font-size="8">
    Translator (223)
  </text>
  
  <rect x="390" y="305" width="80" height="15" fill="none" stroke="black" stroke-width="1"/>
  <text x="430" y="315" text-anchor="middle" font-family="Arial" font-size="8">
    Converter (224)
  </text>
  
  <!-- Optimization Module -->
  <rect x="500" y="240" width="180" height="80" fill="none" stroke="black" stroke-width="2"/>
  <text x="590" y="260" text-anchor="middle" font-family="Arial" font-size="11" font-weight="bold">
    OPTIMIZATION MODULE
  </text>
  <text x="590" y="275" text-anchor="middle" font-family="Arial" font-size="8">
    (23)
  </text>
  
  <rect x="510" y="285" width="70" height="15" fill="none" stroke="black" stroke-width="1"/>
  <text x="545" y="295" text-anchor="middle" font-family="Arial" font-size="8">
    Performance (231)
  </text>
  
  <rect x="590" y="285" width="80" height="15" fill="none" stroke="black" stroke-width="1"/>
  <text x="630" y="295" text-anchor="middle" font-family="Arial" font-size="8">
    Resource Alloc (232)
  </text>
  
  <rect x="510" y="305" width="70" height="15" fill="none" stroke="black" stroke-width="1"/>
  <text x="545" y="315" text-anchor="middle" font-family="Arial" font-size="8">
    Load Balance (233)
  </text>
  
  <rect x="590" y="305" width="80" height="15" fill="none" stroke="black" stroke-width="1"/>
  <text x="630" y="315" text-anchor="middle" font-family="Arial" font-size="8">
    Cache Mgmt (234)
  </text>
  
  <!-- Management System -->
  <rect x="130" y="340" width="540" height="30" fill="none" stroke="black" stroke-width="2"/>
  <text x="400" y="360" text-anchor="middle" font-family="Arial" font-size="11" font-weight="bold">
    MANAGEMENT SYSTEM - CONFIG &amp; MONITORING
  </text>
  <text x="400" y="367" text-anchor="middle" font-family="Arial" font-size="8">
    (24)
  </text>
  
  <!-- Hardware Layer (Bottom) -->
  <rect x="100" y="400" width="600" height="120" fill="none" stroke="black" stroke-width="2"/>
  <text x="400" y="420" text-anchor="middle" font-family="Arial" font-size="11" font-weight="bold">
    QUANTUM &amp; CLASSICAL HARDWARE LAYER
  </text>
  <text x="400" y="435" text-anchor="middle" font-family="Arial" font-size="8">
    (30)
  </text>
  
  <!-- Classical Hardware -->
  <rect x="120" y="450" width="200" height="60" fill="none" stroke="black" stroke-width="1.5"/>
  <text x="220" y="470" text-anchor="middle" font-family="Arial" font-size="11" font-weight="bold">
    CLASSICAL HARDWARE
  </text>
  <text x="220" y="485" text-anchor="middle" font-family="Arial" font-size="8">
    (31)
  </text>
  
  <rect x="130" y="490" width="50" height="15" fill="none" stroke="black" stroke-width="1"/>
  <text x="155" y="500" text-anchor="middle" font-family="Arial" font-size="8">
    CPU (311)
  </text>
  
  <rect x="190" y="490" width="50" height="15" fill="none" stroke="black" stroke-width="1"/>
  <text x="215" y="500" text-anchor="middle" font-family="Arial" font-size="8">
    GPU (312)
  </text>
  
  <rect x="250" y="490" width="60" height="15" fill="none" stroke="black" stroke-width="1"/>
  <text x="280" y="500" text-anchor="middle" font-family="Arial" font-size="8">
    FPGA (313)
  </text>
  
  <!-- Quantum Hardware -->
  <rect x="360" y="450" width="320" height="60" fill="none" stroke="black" stroke-width="1.5"/>
  <text x="520" y="470" text-anchor="middle" font-family="Arial" font-size="11" font-weight="bold">
    QUANTUM HARDWARE
  </text>
  <text x="520" y="485" text-anchor="middle" font-family="Arial" font-size="8">
    (32)
  </text>
  
  <rect x="370" y="490" width="70" height="15" fill="none" stroke="black" stroke-width="1"/>
  <text x="405" y="500" text-anchor="middle" font-family="Arial" font-size="8">
    Supercond (321)
  </text>
  
  <rect x="450" y="490" width="60" height="15" fill="none" stroke="black" stroke-width="1"/>
  <text x="480" y="500" text-anchor="middle" font-family="Arial" font-size="8">
    Ion Trap (322)
  </text>
  
  <rect x="520" y="490" width="70" height="15" fill="none" stroke="black" stroke-width="1"/>
  <text x="555" y="500" text-anchor="middle" font-family="Arial" font-size="8">
    Photonic (323)
  </text>
  
  <rect x="600" y="490" width="70" height="15" fill="none" stroke="black" stroke-width="1"/>
  <text x="635" y="500" text-anchor="middle" font-family="Arial" font-size="8">
    Topological (324)
  </text>
  
  <!-- Data Flow Arrows -->
  <!-- From Applications to HAL -->
  <path d="M 400 160 L 400 180" stroke="black" stroke-width="2" fill="none" marker-end="url(#arrowhead)"/>
  
  <!-- Between HAL Components -->
  <path d="M 280 280 L 300 280" stroke="black" stroke-width="1" fill="none" marker-end="url(#arrowhead)"/>
  <path d="M 480 280 L 500 280" stroke="black" stroke-width="1" fill="none" marker-end="url(#arrowhead)"/>
  
  <!-- From HAL to Hardware -->
  <path d="M 205 320 L 205 350 L 220 350 L 220 400 L 220 450" stroke="black" stroke-width="2" fill="none" marker-end="url(#arrowhead)"/>
  <path d="M 590 320 L 590 350 L 520 350 L 520 400 L 520 450" stroke="black" stroke-width="2" fill="none" marker-end="url(#arrowhead)"/>
  
  <!-- Bi-directional Management -->
  <path d="M 400 340 L 400 320" stroke="black" stroke-width="1" fill="none" marker-end="url(#arrowhead)" stroke-dasharray="2,2"/>
  <path d="M 400 370 L 400 400" stroke="black" stroke-width="1" fill="none" marker-end="url(#arrowhead)" stroke-dasharray="2,2"/>
  
  <!-- Hardware Communication -->
  <path d="M 320 480 L 360 480" stroke="black" stroke-width="1" fill="none" marker-end="url(#arrowhead)" stroke-dasharray="3,3"/>
  <text x="340" y="475" text-anchor="middle" font-family="Arial" font-size="8">Bridge</text>
  
  <!-- Performance Labels -->
  <text x="50" y="570" font-family="Arial" font-size="10" font-weight="bold">
    KEY FEATURES:
  </text>
  <text x="50" y="585" font-family="Arial" font-size="9">
    • Hardware-agnostic API for quantum processors
  </text>
  <text x="400" y="585" font-family="Arial" font-size="9">
    • Real-time optimization and load balancing
  </text>
  
  <!-- Arrow marker definition -->
  <defs>
    <marker id="arrowhead" markerWidth="10" markerHeight="7" refX="9" refY="3.5" orient="auto">
      <polygon points="0 0, 10 3.5, 0 7" fill="black"/>
    </marker>
  </defs>
  
</svg>