<?xml version="1.0" encoding="UTF-8"?>
<svg width="1200" height="900" viewBox="0 0 1200 900" xmlns="http://www.w3.org/2000/svg">
  <defs>
    <style>
      .title-text { font-family: Arial, sans-serif; font-size: 18px; font-weight: bold; text-anchor: middle; }
      .system-text { font-family: Arial, sans-serif; font-size: 14px; font-weight: bold; text-anchor: middle; }
      .component-text { font-family: Arial, sans-serif; font-size: 12px; text-anchor: middle; }
      .detail-text { font-family: Arial, sans-serif; font-size: 10px; text-anchor: middle; }
      .arrow { marker-end: url(#arrowhead); stroke: #333; stroke-width: 2; fill: none; }
      .bidirectional { marker-start: url(#arrowhead); marker-end: url(#arrowhead); stroke: #333; stroke-width: 2; fill: none; }
      .aws-cloud { fill: #ff9900; stroke: #ff6600; stroke-width: 2; rx: 8; opacity: 0.8; }
      .azure-cloud { fill: #0078d4; stroke: #005a9e; stroke-width: 2; rx: 8; opacity: 0.8; }
      .gcp-cloud { fill: #4285f4; stroke: #1a73e8; stroke-width: 2; rx: 8; opacity: 0.8; }
      .fragmenter { fill: #e8f5e8; stroke: #4caf50; stroke-width: 2; rx: 8; }
      .compliance-engine { fill: #f3e5f5; stroke: #9c27b0; stroke-width: 2; rx: 8; }
      .ai-orchestrator { fill: #e3f2fd; stroke: #2196f3; stroke-width: 2; rx: 8; }
    </style>
    <marker id="arrowhead" markerWidth="10" markerHeight="7" refX="10" refY="3.5" orient="auto">
      <polygon points="0 0, 10 3.5, 0 7" fill="#333" />
    </marker>
  </defs>
  
  <!-- Title -->
  <text x="600" y="25" class="title-text">FIGURE 1: Multi-Cloud Quantum-Safe Data Fragmentation Architecture</text>
  
  <!-- Central Data Fragmentation Engine -->
  <rect x="450" y="200" width="300" height="120" class="fragmenter"/>
  <text x="600" y="230" class="system-text">Quantum-Safe Data</text>
  <text x="600" y="245" class="system-text">Fragmentation Engine</text>
  <text x="600" y="270" class="component-text">• CRYSTALS-Kyber encryption</text>
  <text x="600" y="285" class="component-text">• Geographic fragmentation</text>
  <text x="600" y="300" class="component-text">• Compliance-aware distribution</text>
  <text x="600" y="315" class="component-text">• Cross-cloud integrity</text>
  
  <!-- AWS Cloud -->
  <rect x="50" y="80" width="220" height="150" class="aws-cloud"/>
  <text x="160" y="110" class="system-text">Amazon Web Services</text>
  <text x="160" y="125" class="system-text">(US-East)</text>
  <text x="160" y="150" class="component-text">Fragment Storage:</text>
  <text x="160" y="165" class="detail-text">• S3 encrypted storage</text>
  <text x="160" y="177" class="detail-text">• KMS key management</text>
  <text x="160" y="189" class="detail-text">• Lambda processing</text>
  <text x="160" y="205" class="component-text">Compliance: SOC2, GDPR</text>
  <text x="160" y="220" class="component-text">Geographic: North America</text>
  
  <!-- Azure Cloud -->
  <rect x="930" y="80" width="220" height="150" class="azure-cloud"/>
  <text x="1040" y="110" class="system-text">Microsoft Azure</text>
  <text x="1040" y="125" class="system-text">(EU-West)</text>
  <text x="1040" y="150" class="component-text">Fragment Storage:</text>
  <text x="1040" y="165" class="detail-text">• Blob storage encryption</text>
  <text x="1040" y="177" class="detail-text">• Key Vault integration</text>
  <text x="1040" y="189" class="detail-text">• Function processing</text>
  <text x="1040" y="205" class="component-text">Compliance: GDPR, ISO27001</text>
  <text x="1040" y="220" class="component-text">Geographic: European Union</text>
  
  <!-- Google Cloud -->
  <rect x="50" y="400" width="220" height="150" class="gcp-cloud"/>
  <text x="160" y="430" class="system-text">Google Cloud Platform</text>
  <text x="160" y="445" class="system-text">(Asia-Pacific)</text>
  <text x="160" y="470" class="component-text">Fragment Storage:</text>
  <text x="160" y="485" class="detail-text">• Cloud Storage encryption</text>
  <text x="160" y="497" class="detail-text">• KMS key management</text>
  <text x="160" y="509" class="detail-text">• Cloud Function processing</text>
  <text x="160" y="525" class="component-text">Compliance: SOC2, PCI-DSS</text>
  <text x="160" y="540" class="component-text">Geographic: Asia-Pacific</text>
  
  <!-- Geographic Legal Compliance Engine -->
  <rect x="930" y="350" width="220" height="150" class="compliance-engine"/>
  <text x="1040" y="380" class="system-text">Geographic Legal</text>
  <text x="1040" y="395" class="system-text">Compliance Engine</text>
  <text x="1040" y="420" class="component-text">Regulatory Frameworks:</text>
  <text x="1040" y="435" class="detail-text">• GDPR (EU)</text>
  <text x="1040" y="447" class="detail-text">• CCPA (California)</text>
  <text x="1040" y="459" class="detail-text">• PIPEDA (Canada)</text>
  <text x="1040" y="475" class="component-text">Data Sovereignty:</text>
  <text x="1040" y="487" class="detail-text">• Location restrictions</text>
  
  <!-- Cloud-Native AI Orchestrator -->
  <rect x="450" y="400" width="300" height="120" class="ai-orchestrator"/>
  <text x="600" y="430" class="system-text">Cloud-Native AI</text>
  <text x="600" y="445" class="system-text">Orchestrator</text>
  <text x="600" y="470" class="component-text">• Cross-cloud coordination</text>
  <text x="600" y="485" class="component-text">• Intelligent load balancing</text>
  <text x="600" y="500" class="component-text">• Adaptive threat detection</text>
  <text x="600" y="515" class="component-text">• Performance optimization</text>
  
  <!-- Connection Lines -->
  <!-- Fragmenter to clouds -->
  <line x1="450" y1="230" x2="270" y2="155" class="bidirectional"/>
  <line x1="750" y1="230" x2="930" y2="155" class="bidirectional"/>
  <line x1="450" y1="300" x2="270" y2="475" class="bidirectional"/>
  
  <!-- Compliance engine to clouds and fragmenter -->
  <line x1="930" y1="425" x2="750" y2="260" class="arrow"/>
  <line x1="930" y1="400" x2="750" y2="155" class="arrow"/>
  <line x1="930" y1="450" x2="270" y2="475" class="arrow"/>
  
  <!-- AI Orchestrator connections -->
  <line x1="600" y1="400" x2="600" y2="320" class="bidirectional"/>
  <line x1="450" y1="460" x2="270" y2="475" class="bidirectional"/>
  <line x1="750" y1="460" x2="930" y2="425" class="bidirectional"/>
  
  <!-- Data flow labels -->
  <text x="360" y="190" class="detail-text" transform="rotate(-20 360 190)">Encrypted Fragment A</text>
  <text x="840" y="190" class="detail-text" transform="rotate(20 840 190)">Encrypted Fragment B</text>
  <text x="360" y="350" class="detail-text" transform="rotate(20 360 350)">Encrypted Fragment C</text>
  
  <!-- Compliance flow labels -->
  <text x="840" y="300" class="detail-text" transform="rotate(-45 840 300)">Compliance Rules</text>
  <text x="840" y="270" class="detail-text" transform="rotate(-30 840 270)">Policy Updates</text>
  
  <!-- Geographic Distribution Visualization -->
  <rect x="50" y="620" width="1100" height="200" fill="#f8f9fa" stroke="#dee2e6" stroke-width="1" rx="5"/>
  <text x="600" y="645" class="system-text">Multi-Cloud Security and Compliance Features</text>
  
  <!-- Security Features -->
  <rect x="80" y="670" width="200" height="80" class="fragmenter"/>
  <text x="180" y="695" class="system-text">Quantum Security</text>
  <text x="180" y="715" class="detail-text">• CRYSTALS-Kyber KEM</text>
  <text x="180" y="727" class="detail-text">• CRYSTALS-Dilithium</text>
  <text x="180" y="739" class="detail-text">• Fragment encryption</text>
  
  <rect x="300" y="670" width="200" height="80" class="compliance-engine"/>
  <text x="400" y="695" class="system-text">Compliance</text>
  <text x="400" y="715" class="detail-text">• GDPR compliance</text>
  <text x="400" y="727" class="detail-text">• Data residency</text>
  <text x="400" y="739" class="detail-text">• Cross-border rules</text>
  
  <rect x="520" y="670" width="200" height="80" class="ai-orchestrator"/>
  <text x="620" y="695" class="system-text">AI Orchestration</text>
  <text x="620" y="715" class="detail-text">• Intelligent routing</text>
  <text x="620" y="727" class="detail-text">• Load balancing</text>
  <text x="620" y="739" class="detail-text">• Auto-scaling</text>
  
  <rect x="740" y="670" width="200" height="80" class="aws-cloud"/>
  <text x="840" y="695" class="system-text">Multi-Cloud</text>
  <text x="840" y="715" class="detail-text">• Provider diversity</text>
  <text x="840" y="727" class="detail-text">• Vendor lock-in prevention</text>
  <text x="840" y="739" class="detail-text">• High availability</text>
  
  <rect x="960" y="670" width="160" height="80" class="azure-cloud"/>
  <text x="1040" y="695" class="system-text">Performance</text>
  <text x="1040" y="715" class="detail-text">• &lt;100ms latency</text>
  <text x="1040" y="727" class="detail-text">• 99.99% uptime</text>
  <text x="1040" y="739" class="detail-text">• Auto-recovery</text>
  
  <!-- Performance Metrics -->
  <rect x="80" y="770" width="1040" height="30" class="fragmenter"/>
  <text x="200" y="785" class="component-text">Fragmentation: &lt;50ms</text>
  <text x="400" y="785" class="component-text">Cross-cloud sync: &lt;200ms</text>
  <text x="600" y="785" class="component-text">Compliance check: &lt;10ms</text>
  <text x="800" y="785" class="component-text">Data integrity: 100%</text>
  <text x="1000" y="785" class="component-text">Geographic coverage: Global</text>
  
  <!-- Regional Labels -->
  <text x="160" y="60" class="component-text" fill="#ff6600">US Region</text>
  <text x="1040" y="60" class="component-text" fill="#005a9e">EU Region</text>
  <text x="160" y="380" class="component-text" fill="#1a73e8">APAC Region</text>
  <text x="1040" y="330" class="component-text" fill="#9c27b0">Global Compliance</text>
  
  <!-- Data Flow Direction -->
  <text x="600" y="370" class="detail-text">Orchestrated Multi-Cloud Operations</text>
  <text x="600" y="50" class="component-text">Secure • Compliant • Quantum-Resistant • Globally Distributed</text>

</svg>