<?xml version="1.0" encoding="UTF-8"?>
<svg width="800" height="600" xmlns="http://www.w3.org/2000/svg">
  <!-- USPTO Patent Drawing - Figure 2: Technical Implementation -->
  
  <!-- Title -->
  <text x="400" y="30" text-anchor="middle" font-family="Arial" font-size="14" font-weight="bold">
    FIG. 2 - ADAPTIVE DECISION TREE ALGORITHM IMPLEMENTATION
  </text>
  
  <!-- Main Container -->
  <rect x="50" y="50" width="700" height="500" fill="none" stroke="black" stroke-width="2"/>
  <text x="400" y="70" text-anchor="middle" font-family="Arial" font-size="12" font-weight="bold">
    MACHINE LEARNING DECISION TREE TECHNICAL ARCHITECTURE
  </text>
  
  <!-- Feature Extraction Layer (Top) -->
  <rect x="80" y="100" width="640" height="80" fill="none" stroke="black" stroke-width="1.5"/>
  <text x="400" y="120" text-anchor="middle" font-family="Arial" font-size="11" font-weight="bold">
    THREAT FEATURE EXTRACTION ENGINE
  </text>
  <text x="400" y="135" text-anchor="middle" font-family="Arial" font-size="8">
    (110)
  </text>
  
  <!-- Feature extraction components -->
  <rect x="100" y="145" width="90" height="25" fill="none" stroke="black" stroke-width="1"/>
  <text x="145" y="157" text-anchor="middle" font-family="Arial" font-size="8">
    Packet Analysis
  </text>
  <text x="145" y="165" text-anchor="middle" font-family="Arial" font-size="7">
    (111)
  </text>
  
  <rect x="200" y="145" width="90" height="25" fill="none" stroke="black" stroke-width="1"/>
  <text x="245" y="157" text-anchor="middle" font-family="Arial" font-size="8">
    Pattern Detection
  </text>
  <text x="245" y="165" text-anchor="middle" font-family="Arial" font-size="7">
    (112)
  </text>
  
  <rect x="300" y="145" width="90" height="25" fill="none" stroke="black" stroke-width="1"/>
  <text x="345" y="157" text-anchor="middle" font-family="Arial" font-size="8">
    Behavioral Profiling
  </text>
  <text x="345" y="165" text-anchor="middle" font-family="Arial" font-size="7">
    (113)
  </text>
  
  <rect x="400" y="145" width="90" height="25" fill="none" stroke="black" stroke-width="1"/>
  <text x="445" y="157" text-anchor="middle" font-family="Arial" font-size="8">
    Statistical Analysis
  </text>
  <text x="445" y="165" text-anchor="middle" font-family="Arial" font-size="7">
    (114)
  </text>
  
  <rect x="500" y="145" width="90" height="25" fill="none" stroke="black" stroke-width="1"/>
  <text x="545" y="157" text-anchor="middle" font-family="Arial" font-size="8">
    Entropy Calculation
  </text>
  <text x="545" y="165" text-anchor="middle" font-family="Arial" font-size="7">
    (115)
  </text>
  
  <rect x="600" y="145" width="90" height="25" fill="none" stroke="black" stroke-width="1"/>
  <text x="645" y="157" text-anchor="middle" font-family="Arial" font-size="8">
    Metadata Extract
  </text>
  <text x="645" y="165" text-anchor="middle" font-family="Arial" font-size="7">
    (116)
  </text>
  
  <!-- Decision Tree Core Engine (Center Left) -->
  <rect x="80" y="200" width="320" height="200" fill="none" stroke="black" stroke-width="1.5"/>
  <text x="240" y="220" text-anchor="middle" font-family="Arial" font-size="11" font-weight="bold">
    ADAPTIVE DECISION TREE CORE ENGINE
  </text>
  <text x="240" y="235" text-anchor="middle" font-family="Arial" font-size="8">
    (120)
  </text>
  
  <!-- Decision nodes in tree structure -->
  <!-- Root node -->
  <polygon points="240,250 270,270 240,290 210,270" fill="none" stroke="black" stroke-width="1.5"/>
  <text x="240" y="268" text-anchor="middle" font-family="Arial" font-size="8">
    Threat
  </text>
  <text x="240" y="278" text-anchor="middle" font-family="Arial" font-size="8">
    Type?
  </text>
  <text x="240" y="285" text-anchor="middle" font-family="Arial" font-size="7">
    (121)
  </text>
  
  <!-- Level 2 nodes -->
  <polygon points="160,310 180,325 160,340 140,325" fill="none" stroke="black" stroke-width="1"/>
  <text x="160" y="323" text-anchor="middle" font-family="Arial" font-size="7">
    Complexity?
  </text>
  <text x="160" y="335" text-anchor="middle" font-family="Arial" font-size="6">
    (122)
  </text>
  
  <polygon points="320,310 340,325 320,340 300,325" fill="none" stroke="black" stroke-width="1"/>
  <text x="320" y="323" text-anchor="middle" font-family="Arial" font-size="7">
    Urgency?
  </text>
  <text x="320" y="335" text-anchor="middle" font-family="Arial" font-size="6">
    (123)
  </text>
  
  <!-- Leaf nodes -->
  <rect x="110" y="355" width="40" height="20" fill="none" stroke="black" stroke-width="1"/>
  <text x="130" y="365" text-anchor="middle" font-family="Arial" font-size="7">
    Classical
  </text>
  <text x="130" y="372" text-anchor="middle" font-family="Arial" font-size="6">
    (124)
  </text>
  
  <rect x="170" y="355" width="40" height="20" fill="none" stroke="black" stroke-width="1"/>
  <text x="190" y="365" text-anchor="middle" font-family="Arial" font-size="7">
    Hybrid
  </text>
  <text x="190" y="372" text-anchor="middle" font-family="Arial" font-size="6">
    (125)
  </text>
  
  <rect x="280" y="355" width="40" height="20" fill="none" stroke="black" stroke-width="1"/>
  <text x="300" y="365" text-anchor="middle" font-family="Arial" font-size="7">
    Quantum
  </text>
  <text x="300" y="372" text-anchor="middle" font-family="Arial" font-size="6">
    (126)
  </text>
  
  <rect x="330" y="355" width="40" height="20" fill="none" stroke="black" stroke-width="1"/>
  <text x="350" y="365" text-anchor="middle" font-family="Arial" font-size="7">
    Priority Q
  </text>
  <text x="350" y="372" text-anchor="middle" font-family="Arial" font-size="6">
    (127)
  </text>
  
  <!-- Machine Learning Optimization Engine (Center Right) -->
  <rect x="420" y="200" width="300" height="200" fill="none" stroke="black" stroke-width="1.5"/>
  <text x="570" y="220" text-anchor="middle" font-family="Arial" font-size="11" font-weight="bold">
    ML OPTIMIZATION &amp; LEARNING ENGINE
  </text>
  <text x="570" y="235" text-anchor="middle" font-family="Arial" font-size="8">
    (130)
  </text>
  
  <!-- ML components -->
  <rect x="440" y="250" width="120" height="30" fill="none" stroke="black" stroke-width="1"/>
  <text x="500" y="263" text-anchor="middle" font-family="Arial" font-size="9">
    Historical Performance
  </text>
  <text x="500" y="273" text-anchor="middle" font-family="Arial" font-size="9">
    Database
  </text>
  <text x="500" y="278" text-anchor="middle" font-family="Arial" font-size="7">
    (131)
  </text>
  
  <rect x="580" y="250" width="120" height="30" fill="none" stroke="black" stroke-width="1"/>
  <text x="640" y="263" text-anchor="middle" font-family="Arial" font-size="9">
    Reinforcement Learning
  </text>
  <text x="640" y="273" text-anchor="middle" font-family="Arial" font-size="9">
    Algorithm
  </text>
  <text x="640" y="278" text-anchor="middle" font-family="Arial" font-size="7">
    (132)
  </text>
  
  <rect x="440" y="290" width="120" height="30" fill="none" stroke="black" stroke-width="1"/>
  <text x="500" y="303" text-anchor="middle" font-family="Arial" font-size="9">
    Accuracy Predictor
  </text>
  <text x="500" y="313" text-anchor="middle" font-family="Arial" font-size="7">
    (133)
  </text>
  
  <rect x="580" y="290" width="120" height="30" fill="none" stroke="black" stroke-width="1"/>
  <text x="640" y="303" text-anchor="middle" font-family="Arial" font-size="9">
    Resource Cost Calculator
  </text>
  <text x="640" y="313" text-anchor="middle" font-family="Arial" font-size="7">
    (134)
  </text>
  
  <rect x="440" y="330" width="120" height="30" fill="none" stroke="black" stroke-width="1"/>
  <text x="500" y="343" text-anchor="middle" font-family="Arial" font-size="9">
    Decision Optimizer
  </text>
  <text x="500" y="353" text-anchor="middle" font-family="Arial" font-size="7">
    (135)
  </text>
  
  <rect x="580" y="330" width="120" height="30" fill="none" stroke="black" stroke-width="1"/>
  <text x="640" y="343" text-anchor="middle" font-family="Arial" font-size="9">
    Threshold Adjuster
  </text>
  <text x="640" y="353" text-anchor="middle" font-family="Arial" font-size="7">
    (136)
  </text>
  
  <!-- Real-Time Adaptation System (Bottom) -->
  <rect x="80" y="420" width="640" height="80" fill="none" stroke="black" stroke-width="1.5"/>
  <text x="400" y="440" text-anchor="middle" font-family="Arial" font-size="11" font-weight="bold">
    REAL-TIME ADAPTATION &amp; PERFORMANCE MONITORING
  </text>
  <text x="400" y="455" text-anchor="middle" font-family="Arial" font-size="8">
    (140)
  </text>
  
  <!-- Adaptation components -->
  <rect x="100" y="465" width="80" height="25" fill="none" stroke="black" stroke-width="1"/>
  <text x="140" y="477" text-anchor="middle" font-family="Arial" font-size="8">
    Performance Monitor
  </text>
  <text x="140" y="485" text-anchor="middle" font-family="Arial" font-size="7">
    (141)
  </text>
  
  <rect x="200" y="465" width="80" height="25" fill="none" stroke="black" stroke-width="1"/>
  <text x="240" y="477" text-anchor="middle" font-family="Arial" font-size="8">
    Dynamic Thresholds
  </text>
  <text x="240" y="485" text-anchor="middle" font-family="Arial" font-size="7">
    (142)
  </text>
  
  <rect x="300" y="465" width="80" height="25" fill="none" stroke="black" stroke-width="1"/>
  <text x="340" y="477" text-anchor="middle" font-family="Arial" font-size="8">
    Tree Restructure
  </text>
  <text x="340" y="485" text-anchor="middle" font-family="Arial" font-size="7">
    (143)
  </text>
  
  <rect x="400" y="465" width="80" height="25" fill="none" stroke="black" stroke-width="1"/>
  <text x="440" y="477" text-anchor="middle" font-family="Arial" font-size="8">
    Load Balancer
  </text>
  <text x="440" y="485" text-anchor="middle" font-family="Arial" font-size="7">
    (144)
  </text>
  
  <rect x="500" y="465" width="80" height="25" fill="none" stroke="black" stroke-width="1"/>
  <text x="540" y="477" text-anchor="middle" font-family="Arial" font-size="8">
    Feedback Loop
  </text>
  <text x="540" y="485" text-anchor="middle" font-family="Arial" font-size="7">
    (145)
  </text>
  
  <rect x="600" y="465" width="80" height="25" fill="none" stroke="black" stroke-width="1"/>
  <text x="640" y="477" text-anchor="middle" font-family="Arial" font-size="8">
    Model Updater
  </text>
  <text x="640" y="485" text-anchor="middle" font-family="Arial" font-size="7">
    (146)
  </text>
  
  <!-- Decision tree connections -->
  <path d="M 210 270 L 160 310" stroke="black" stroke-width="1" fill="none"/>
  <path d="M 270 270 L 320 310" stroke="black" stroke-width="1" fill="none"/>
  <path d="M 140 325 L 130 355" stroke="black" stroke-width="1" fill="none"/>
  <path d="M 180 325 L 190 355" stroke="black" stroke-width="1" fill="none"/>
  <path d="M 300 325 L 300 355" stroke="black" stroke-width="1" fill="none"/>
  <path d="M 340 325 L 350 355" stroke="black" stroke-width="1" fill="none"/>
  
  <!-- Data flow arrows -->
  <path d="M 400 180 L 400 200" stroke="black" stroke-width="2" fill="none" marker-end="url(#arrowhead)"/>
  <path d="M 400 300 L 420 300" stroke="black" stroke-width="1" fill="none" marker-end="url(#arrowhead)"/>
  <path d="M 570 400 L 570 420" stroke="black" stroke-width="1" fill="none" marker-end="url(#arrowhead)"/>
  
  <!-- Feedback loops -->
  <path d="M 540 465 L 540 440 L 750 440 L 750 300 L 720 300" stroke="black" stroke-width="1" fill="none" marker-end="url(#arrowhead)" stroke-dasharray="2,2"/>
  <text x="650" y="425" text-anchor="middle" font-family="Arial" font-size="7">Continuous Learning</text>
  
  <!-- Arrow marker definition -->
  <defs>
    <marker id="arrowhead" markerWidth="10" markerHeight="7" refX="9" refY="3.5" orient="auto">
      <polygon points="0 0, 10 3.5, 0 7" fill="black"/>
    </marker>
  </defs>
  
</svg>