<?xml version="1.0" encoding="UTF-8"?>
<svg width="800" height="600" xmlns="http://www.w3.org/2000/svg">
  <!-- USPTO Patent Drawing - Figure 1: Dynamic Quantum Resource Allocation Architecture -->
  
  <!-- Title -->
  <text x="400" y="30" text-anchor="middle" font-family="Arial" font-size="14" font-weight="bold">
    FIG. 1 - DYNAMIC QUANTUM RESOURCE ALLOCATION SYSTEM ARCHITECTURE
  </text>
  
  <!-- Main System Container -->
  <rect x="50" y="50" width="700" height="500" fill="none" stroke="black" stroke-width="2"/>
  <text x="400" y="70" text-anchor="middle" font-family="Arial" font-size="12" font-weight="bold">
    QUANTUM CYBERSECURITY RESOURCE MANAGEMENT SYSTEM
  </text>
  
  <!-- Resource Pool (Top) -->
  <rect x="100" y="100" width="600" height="80" fill="none" stroke="black" stroke-width="2"/>
  <text x="400" y="120" text-anchor="middle" font-family="Arial" font-size="11" font-weight="bold">
    AVAILABLE RESOURCE POOL
  </text>
  <text x="400" y="135" text-anchor="middle" font-family="Arial" font-size="8">
    (10)
  </text>
  
  <!-- Resource Types -->
  <rect x="120" y="145" width="100" height="25" fill="none" stroke="black" stroke-width="1"/>
  <text x="170" y="160" text-anchor="middle" font-family="Arial" font-size="8">
    Quantum QPUs (11)
  </text>
  
  <rect x="240" y="145" width="100" height="25" fill="none" stroke="black" stroke-width="1"/>
  <text x="290" y="160" text-anchor="middle" font-family="Arial" font-size="8">
    Classical CPUs (12)
  </text>
  
  <rect x="360" y="145" width="100" height="25" fill="none" stroke="black" stroke-width="1"/>
  <text x="410" y="160" text-anchor="middle" font-family="Arial" font-size="8">
    GPU Arrays (13)
  </text>
  
  <rect x="480" y="145" width="100" height="25" fill="none" stroke="black" stroke-width="1"/>
  <text x="530" y="160" text-anchor="middle" font-family="Arial" font-size="8">
    Memory Banks (14)
  </text>
  
  <rect x="600" y="145" width="80" height="25" fill="none" stroke="black" stroke-width="1"/>
  <text x="640" y="160" text-anchor="middle" font-family="Arial" font-size="8">
    Storage (15)
  </text>
  
  <!-- Resource Allocation Engine (Center) -->
  <rect x="150" y="200" width="500" height="160" fill="none" stroke="black" stroke-width="3"/>
  <text x="400" y="225" text-anchor="middle" font-family="Arial" font-size="12" font-weight="bold">
    DYNAMIC RESOURCE ALLOCATION ENGINE
  </text>
  <text x="400" y="240" text-anchor="middle" font-family="Arial" font-size="8">
    (20)
  </text>
  
  <!-- Allocation Components -->
  <rect x="170" y="255" width="120" height="40" fill="none" stroke="black" stroke-width="2"/>
  <text x="230" y="270" text-anchor="middle" font-family="Arial" font-size="9">
    Demand Predictor
  </text>
  <text x="230" y="280" text-anchor="middle" font-family="Arial" font-size="9">
    &amp; Analyzer
  </text>
  <text x="230" y="290" text-anchor="middle" font-family="Arial" font-size="8">
    (21)
  </text>
  
  <rect x="310" y="255" width="120" height="40" fill="none" stroke="black" stroke-width="2"/>
  <text x="370" y="270" text-anchor="middle" font-family="Arial" font-size="9">
    Allocation
  </text>
  <text x="370" y="280" text-anchor="middle" font-family="Arial" font-size="9">
    Optimizer
  </text>
  <text x="370" y="290" text-anchor="middle" font-family="Arial" font-size="8">
    (22)
  </text>
  
  <rect x="450" y="255" width="120" height="40" fill="none" stroke="black" stroke-width="2"/>
  <text x="510" y="270" text-anchor="middle" font-family="Arial" font-size="9">
    Load Balancer
  </text>
  <text x="510" y="280" text-anchor="middle" font-family="Arial" font-size="9">
    &amp; Scheduler
  </text>
  <text x="510" y="290" text-anchor="middle" font-family="Arial" font-size="8">
    (23)
  </text>
  
  <!-- Resource Monitor -->
  <rect x="170" y="310" width="180" height="35" fill="none" stroke="black" stroke-width="1"/>
  <text x="260" y="330" text-anchor="middle" font-family="Arial" font-size="9">
    Resource Monitor &amp; Tracker
  </text>
  <text x="260" y="340" text-anchor="middle" font-family="Arial" font-size="8">
    (24)
  </text>
  
  <!-- Performance Controller -->
  <rect x="370" y="310" width="200" height="35" fill="none" stroke="black" stroke-width="1"/>
  <text x="470" y="330" text-anchor="middle" font-family="Arial" font-size="9">
    Performance Controller &amp; Optimizer
  </text>
  <text x="470" y="340" text-anchor="middle" font-family="Arial" font-size="8">
    (25)
  </text>
  
  <!-- Task Queue Management (Left Side) -->
  <rect x="80" y="200" width="160" height="160" fill="none" stroke="black" stroke-width="2"/>
  <text x="160" y="220" text-anchor="middle" font-family="Arial" font-size="11" font-weight="bold">
    TASK QUEUE
  </text>
  <text x="160" y="235" text-anchor="middle" font-family="Arial" font-size="11" font-weight="bold">
    MANAGEMENT
  </text>
  <text x="160" y="250" text-anchor="middle" font-family="Arial" font-size="8">
    (30)
  </text>
  
  <!-- Queue Types -->
  <rect x="100" y="265" width="120" height="20" fill="none" stroke="black" stroke-width="1"/>
  <text x="160" y="277" text-anchor="middle" font-family="Arial" font-size="8">
    Priority Queue (31)
  </text>
  
  <rect x="100" y="290" width="120" height="20" fill="none" stroke="black" stroke-width="1"/>
  <text x="160" y="302" text-anchor="middle" font-family="Arial" font-size="8">
    Batch Queue (32)
  </text>
  
  <rect x="100" y="315" width="120" height="20" fill="none" stroke="black" stroke-width="1"/>
  <text x="160" y="327" text-anchor="middle" font-family="Arial" font-size="8">
    Interactive Queue (33)
  </text>
  
  <rect x="100" y="340" width="120" height="15" fill="none" stroke="black" stroke-width="1"/>
  <text x="160" y="350" text-anchor="middle" font-family="Arial" font-size="8">
    Emergency Queue (34)
  </text>
  
  <!-- Resource Provisioning (Right Side) -->
  <rect x="660" y="200" width="160" height="160" fill="none" stroke="black" stroke-width="2"/>
  <text x="740" y="220" text-anchor="middle" font-family="Arial" font-size="11" font-weight="bold">
    RESOURCE
  </text>
  <text x="740" y="235" text-anchor="middle" font-family="Arial" font-size="11" font-weight="bold">
    PROVISIONING
  </text>
  <text x="740" y="250" text-anchor="middle" font-family="Arial" font-size="8">
    (40)
  </text>
  
  <!-- Provisioning Components -->
  <rect x="680" y="265" width="120" height="20" fill="none" stroke="black" stroke-width="1"/>
  <text x="740" y="277" text-anchor="middle" font-family="Arial" font-size="8">
    Auto-Scaling (41)
  </text>
  
  <rect x="680" y="290" width="120" height="20" fill="none" stroke="black" stroke-width="1"/>
  <text x="740" y="302" text-anchor="middle" font-family="Arial" font-size="8">
    Capacity Planning (42)
  </text>
  
  <rect x="680" y="315" width="120" height="20" fill="none" stroke="black" stroke-width="1"/>
  <text x="740" y="327" text-anchor="middle" font-family="Arial" font-size="8">
    Threshold Monitor (43)
  </text>
  
  <rect x="680" y="340" width="120" height="15" fill="none" stroke="black" stroke-width="1"/>
  <text x="740" y="350" text-anchor="middle" font-family="Arial" font-size="8">
    Alert System (44)
  </text>
  
  <!-- Processing Execution Layer (Bottom) -->
  <rect x="100" y="380" width="600" height="120" fill="none" stroke="black" stroke-width="2"/>
  <text x="400" y="400" text-anchor="middle" font-family="Arial" font-size="11" font-weight="bold">
    PROCESSING EXECUTION &amp; MONITORING LAYER
  </text>
  <text x="400" y="415" text-anchor="middle" font-family="Arial" font-size="8">
    (50)
  </text>
  
  <!-- Execution Components -->
  <rect x="120" y="430" width="130" height="25" fill="none" stroke="black" stroke-width="1"/>
  <text x="185" y="445" text-anchor="middle" font-family="Arial" font-size="8">
    Quantum Executor (51)
  </text>
  
  <rect x="270" y="430" width="130" height="25" fill="none" stroke="black" stroke-width="1"/>
  <text x="335" y="445" text-anchor="middle" font-family="Arial" font-size="8">
    Classical Executor (52)
  </text>
  
  <rect x="420" y="430" width="130" height="25" fill="none" stroke="black" stroke-width="1"/>
  <text x="485" y="445" text-anchor="middle" font-family="Arial" font-size="8">
    Hybrid Coordinator (53)
  </text>
  
  <rect x="570" y="430" width="110" height="25" fill="none" stroke="black" stroke-width="1"/>
  <text x="625" y="445" text-anchor="middle" font-family="Arial" font-size="8">
    Results Collector (54)
  </text>
  
  <!-- Monitoring Components -->
  <rect x="120" y="465" width="100" height="25" fill="none" stroke="black" stroke-width="1"/>
  <text x="170" y="480" text-anchor="middle" font-family="Arial" font-size="8">
    Perf Monitor (55)
  </text>
  
  <rect x="240" y="465" width="100" height="25" fill="none" stroke="black" stroke-width="1"/>
  <text x="290" y="480" text-anchor="middle" font-family="Arial" font-size="8">
    Usage Tracker (56)
  </text>
  
  <rect x="360" y="465" width="100" height="25" fill="none" stroke="black" stroke-width="1"/>
  <text x="410" y="480" text-anchor="middle" font-family="Arial" font-size="8">
    Error Handler (57)
  </text>
  
  <rect x="480" y="465" width="100" height="25" fill="none" stroke="black" stroke-width="1"/>
  <text x="530" y="480" text-anchor="middle" font-family="Arial" font-size="8">
    SLA Monitor (58)
  </text>
  
  <rect x="600" y="465" width="80" height="25" fill="none" stroke="black" stroke-width="1"/>
  <text x="640" y="480" text-anchor="middle" font-family="Arial" font-size="8">
    Audit Log (59)
  </text>
  
  <!-- Data Flow Arrows -->
  <!-- From Resource Pool to Allocation Engine -->
  <path d="M 400 180 L 400 200" stroke="black" stroke-width="2" fill="none" marker-end="url(#arrowhead)"/>
  
  <!-- From Queue Management to Allocation Engine -->
  <path d="M 240 280 L 310 280" stroke="black" stroke-width="2" fill="none" marker-end="url(#arrowhead)"/>
  
  <!-- From Allocation Engine to Provisioning -->
  <path d="M 650 280 L 660 280" stroke="black" stroke-width="2" fill="none" marker-end="url(#arrowhead)"/>
  
  <!-- From Allocation Engine to Execution -->
  <path d="M 400 360 L 400 380" stroke="black" stroke-width="2" fill="none" marker-end="url(#arrowhead)"/>
  
  <!-- Feedback Loops -->
  <path d="M 260 310 L 260 290 L 100 290 L 100 200" stroke="black" stroke-width="1" fill="none" marker-end="url(#arrowhead)" stroke-dasharray="2,2"/>
  <text x="120" y="245" text-anchor="middle" font-family="Arial" font-size="8">Resource Feedback</text>
  
  <path d="M 470 310 L 470 290 L 750 290 L 750 200" stroke="black" stroke-width="1" fill="none" marker-end="url(#arrowhead)" stroke-dasharray="2,2"/>
  <text x="730" y="245" text-anchor="middle" font-family="Arial" font-size="8">Performance Feedback</text>
  
  <!-- Monitoring Feedback -->
  <path d="M 400 465 L 400 450 L 50 450 L 50 140 L 100 140" stroke="black" stroke-width="1" fill="none" marker-end="url(#arrowhead)" stroke-dasharray="3,3"/>
  <text x="80" y="295" text-anchor="middle" font-family="Arial" font-size="8">Real-time</text>
  <text x="80" y="305" text-anchor="middle" font-family="Arial" font-size="8">Monitoring</text>
  
  <!-- Arrow marker definition -->
  <defs>
    <marker id="arrowhead" markerWidth="10" markerHeight="7" refX="9" refY="3.5" orient="auto">
      <polygon points="0 0, 10 3.5, 0 7" fill="black"/>
    </marker>
  </defs>
  
</svg>