<?xml version="1.0" encoding="UTF-8"?>
<svg width="800" height="600" xmlns="http://www.w3.org/2000/svg">
  <!-- USPTO Patent Drawing - Figure 3: Process Flow -->
  
  <!-- Title -->
  <text x="400" y="30" text-anchor="middle" font-family="Arial" font-size="14" font-weight="bold">
    FIG. 3 - ADAPTIVE DECISION TREE LEARNING PROCESS FLOW
  </text>
  
  <!-- Main Container -->
  <rect x="50" y="50" width="700" height="500" fill="none" stroke="black" stroke-width="2"/>
  <text x="400" y="70" text-anchor="middle" font-family="Arial" font-size="12" font-weight="bold">
    MACHINE LEARNING OPTIMIZATION WORKFLOW
  </text>
  
  <!-- Start: Threat Input -->
  <rect x="100" y="100" width="120" height="50" rx="10" ry="10" fill="none" stroke="black" stroke-width="1.5"/>
  <text x="160" y="120" text-anchor="middle" font-family="Arial" font-size="10" font-weight="bold">
    THREAT DATA
  </text>
  <text x="160" y="135" text-anchor="middle" font-family="Arial" font-size="10" font-weight="bold">
    RECEIVED
  </text>
  <text x="160" y="145" text-anchor="middle" font-family="Arial" font-size="8">
    (200)
  </text>
  
  <!-- Feature Extraction -->
  <rect x="280" y="100" width="120" height="50" rx="10" ry="10" fill="none" stroke="black" stroke-width="1.5"/>
  <text x="340" y="120" text-anchor="middle" font-family="Arial" font-size="10" font-weight="bold">
    FEATURE
  </text>
  <text x="340" y="135" text-anchor="middle" font-family="Arial" font-size="10" font-weight="bold">
    EXTRACTION
  </text>
  <text x="340" y="145" text-anchor="middle" font-family="Arial" font-size="8">
    (210)
  </text>
  
  <!-- Historical Lookup -->
  <rect x="460" y="100" width="120" height="50" rx="10" ry="10" fill="none" stroke="black" stroke-width="1.5"/>
  <text x="520" y="120" text-anchor="middle" font-family="Arial" font-size="10" font-weight="bold">
    HISTORICAL
  </text>
  <text x="520" y="135" text-anchor="middle" font-family="Arial" font-size="10" font-weight="bold">
    LOOKUP
  </text>
  <text x="520" y="145" text-anchor="middle" font-family="Arial" font-size="8">
    (220)
  </text>
  
  <!-- Decision Tree Navigation -->
  <polygon points="340,180 380,200 340,220 300,200" fill="none" stroke="black" stroke-width="1.5"/>
  <text x="340" y="195" text-anchor="middle" font-family="Arial" font-size="9" font-weight="bold">
    DECISION
  </text>
  <text x="340" y="208" text-anchor="middle" font-family="Arial" font-size="9" font-weight="bold">
    TREE NAV
  </text>
  <text x="340" y="215" text-anchor="middle" font-family="Arial" font-size="8">
    (230)
  </text>
  
  <!-- Route Assignment -->
  <rect x="100" y="260" width="120" height="50" rx="10" ry="10" fill="none" stroke="black" stroke-width="1.5"/>
  <text x="160" y="280" text-anchor="middle" font-family="Arial" font-size="10" font-weight="bold">
    ROUTE
  </text>
  <text x="160" y="295" text-anchor="middle" font-family="Arial" font-size="10" font-weight="bold">
    ASSIGNMENT
  </text>
  <text x="160" y="305" text-anchor="middle" font-family="Arial" font-size="8">
    (240)
  </text>
  
  <!-- Processing Execution -->
  <rect x="280" y="260" width="120" height="50" rx="10" ry="10" fill="none" stroke="black" stroke-width="1.5"/>
  <text x="340" y="280" text-anchor="middle" font-family="Arial" font-size="10" font-weight="bold">
    PROCESSING
  </text>
  <text x="340" y="295" text-anchor="middle" font-family="Arial" font-size="10" font-weight="bold">
    EXECUTION
  </text>
  <text x="340" y="305" text-anchor="middle" font-family="Arial" font-size="8">
    (250)
  </text>
  
  <!-- Performance Measurement -->
  <rect x="460" y="260" width="120" height="50" rx="10" ry="10" fill="none" stroke="black" stroke-width="1.5"/>
  <text x="520" y="280" text-anchor="middle" font-family="Arial" font-size="10" font-weight="bold">
    PERFORMANCE
  </text>
  <text x="520" y="295" text-anchor="middle" font-family="Arial" font-size="10" font-weight="bold">
    MEASUREMENT
  </text>
  <text x="520" y="305" text-anchor="middle" font-family="Arial" font-size="8">
    (260)
  </text>
  
  <!-- Decision: Performance Satisfactory? -->
  <polygon points="340,360 380,380 340,400 300,380" fill="none" stroke="black" stroke-width="1.5"/>
  <text x="340" y="375" text-anchor="middle" font-family="Arial" font-size="9" font-weight="bold">
    PERFORMANCE
  </text>
  <text x="340" y="385" text-anchor="middle" font-family="Arial" font-size="9" font-weight="bold">
    OK?
  </text>
  <text x="340" y="395" text-anchor="middle" font-family="Arial" font-size="8">
    (270)
  </text>
  
  <!-- Learning Update (Left Branch) -->
  <rect x="100" y="420" width="120" height="50" rx="10" ry="10" fill="none" stroke="black" stroke-width="1.5"/>
  <text x="160" y="440" text-anchor="middle" font-family="Arial" font-size="10" font-weight="bold">
    TREE
  </text>
  <text x="160" y="455" text-anchor="middle" font-family="Arial" font-size="10" font-weight="bold">
    RESTRUCTURE
  </text>
  <text x="160" y="465" text-anchor="middle" font-family="Arial" font-size="8">
    (280)
  </text>
  
  <!-- Model Update (Center Branch) -->
  <rect x="280" y="420" width="120" height="50" rx="10" ry="10" fill="none" stroke="black" stroke-width="1.5"/>
  <text x="340" y="440" text-anchor="middle" font-family="Arial" font-size="10" font-weight="bold">
    MODEL
  </text>
  <text x="340" y="455" text-anchor="middle" font-family="Arial" font-size="10" font-weight="bold">
    UPDATE
  </text>
  <text x="340" y="465" text-anchor="middle" font-family="Arial" font-size="8">
    (290)
  </text>
  
  <!-- Success Path (Right Branch) -->
  <rect x="580" y="360" width="120" height="50" rx="10" ry="10" fill="none" stroke="black" stroke-width="1.5"/>
  <text x="640" y="380" text-anchor="middle" font-family="Arial" font-size="10" font-weight="bold">
    UPDATE
  </text>
  <text x="640" y="395" text-anchor="middle" font-family="Arial" font-size="10" font-weight="bold">
    STATISTICS
  </text>
  <text x="640" y="405" text-anchor="middle" font-family="Arial" font-size="8">
    (300)
  </text>
  
  <!-- Final Optimization -->
  <rect x="460" y="480" width="120" height="50" rx="10" ry="10" fill="none" stroke="black" stroke-width="1.5"/>
  <text x="520" y="500" text-anchor="middle" font-family="Arial" font-size="10" font-weight="bold">
    THRESHOLD
  </text>
  <text x="520" y="515" text-anchor="middle" font-family="Arial" font-size="10" font-weight="bold">
    OPTIMIZATION
  </text>
  <text x="520" y="525" text-anchor="middle" font-family="Arial" font-size="8">
    (310)
  </text>
  
  <!-- Process Flow Arrows -->
  <path d="M 220 125 L 280 125" stroke="black" stroke-width="2" fill="none" marker-end="url(#arrowhead)"/>
  <path d="M 400 125 L 460 125" stroke="black" stroke-width="2" fill="none" marker-end="url(#arrowhead)"/>
  <path d="M 520 150 L 520 170 L 340 170 L 340 180" stroke="black" stroke-width="2" fill="none" marker-end="url(#arrowhead)"/>
  
  <!-- Decision tree to processing -->
  <path d="M 300 200 L 160 260" stroke="black" stroke-width="2" fill="none" marker-end="url(#arrowhead)"/>
  <path d="M 340 220 L 340 260" stroke="black" stroke-width="2" fill="none" marker-end="url(#arrowhead)"/>
  <path d="M 380 200 L 520 260" stroke="black" stroke-width="2" fill="none" marker-end="url(#arrowhead)"/>
  
  <!-- To performance check -->
  <path d="M 160 310 L 160 340 L 300 340 L 300 360" stroke="black" stroke-width="2" fill="none" marker-end="url(#arrowhead)"/>
  <path d="M 340 310 L 340 360" stroke="black" stroke-width="2" fill="none" marker-end="url(#arrowhead)"/>
  <path d="M 520 310 L 520 340 L 380 340 L 380 380" stroke="black" stroke-width="2" fill="none" marker-end="url(#arrowhead)"/>
  
  <!-- Performance decision branches -->
  <path d="M 300 380 L 160 420" stroke="black" stroke-width="2" fill="none" marker-end="url(#arrowhead)"/>
  <text x="220" y="400" text-anchor="middle" font-family="Arial" font-size="8">NO - POOR</text>
  
  <path d="M 340 400 L 340 420" stroke="black" stroke-width="2" fill="none" marker-end="url(#arrowhead)"/>
  <text x="360" y="410" text-anchor="middle" font-family="Arial" font-size="8">NO - AVERAGE</text>
  
  <path d="M 380 380 L 580 385" stroke="black" stroke-width="2" fill="none" marker-end="url(#arrowhead)"/>
  <text x="480" y="375" text-anchor="middle" font-family="Arial" font-size="8">YES - GOOD</text>
  
  <!-- To optimization -->
  <path d="M 640 410 L 640 460 L 520 460 L 520 480" stroke="black" stroke-width="2" fill="none" marker-end="url(#arrowhead)"/>
  <path d="M 160 470 L 160 500 L 460 500" stroke="black" stroke-width="2" fill="none" marker-end="url(#arrowhead)"/>
  <path d="M 340 470 L 340 500 L 460 500" stroke="black" stroke-width="2" fill="none" marker-end="url(#arrowhead)"/>
  
  <!-- Learning feedback loop -->
  <path d="M 520 530 L 750 530 L 750 200 L 380 200" stroke="black" stroke-width="1" fill="none" marker-end="url(#arrowhead)" stroke-dasharray="3,3"/>
  <text x="650" y="520" text-anchor="middle" font-family="Arial" font-size="8">Adaptive Learning Loop</text>
  
  <!-- Performance metrics -->
  <rect x="60" y="320" width="50" height="80" fill="none" stroke="black" stroke-width="1" stroke-dasharray="2,2"/>
  <text x="85" y="335" text-anchor="middle" font-family="Arial" font-size="7">Metrics:</text>
  <text x="85" y="345" text-anchor="middle" font-family="Arial" font-size="6">• Accuracy</text>
  <text x="85" y="355" text-anchor="middle" font-family="Arial" font-size="6">• Latency</text>
  <text x="85" y="365" text-anchor="middle" font-family="Arial" font-size="6">• Resources</text>
  <text x="85" y="375" text-anchor="middle" font-family="Arial" font-size="6">• Throughput</text>
  <text x="85" y="385" text-anchor="middle" font-family="Arial" font-size="6">• False +/-</text>
  <text x="85" y="395" text-anchor="middle" font-family="Arial" font-size="8">(320)</text>
  
  <!-- Optimization targets -->
  <rect x="710" y="460" width="60" height="70" fill="none" stroke="black" stroke-width="1" stroke-dasharray="2,2"/>
  <text x="740" y="475" text-anchor="middle" font-family="Arial" font-size="7">Optimize:</text>
  <text x="740" y="485" text-anchor="middle" font-family="Arial" font-size="6">• Thresholds</text>
  <text x="740" y="495" text-anchor="middle" font-family="Arial" font-size="6">• Weights</text>
  <text x="740" y="505" text-anchor="middle" font-family="Arial" font-size="6">• Tree Depth</text>
  <text x="740" y="515" text-anchor="middle" font-family="Arial" font-size="6">• Split Criteria</text>
  <text x="740" y="525" text-anchor="middle" font-family="Arial" font-size="8">(330)</text>
  
  <!-- Arrow marker definition -->
  <defs>
    <marker id="arrowhead" markerWidth="10" markerHeight="7" refX="9" refY="3.5" orient="auto">
      <polygon points="0 0, 10 3.5, 0 7" fill="black"/>
    </marker>
  </defs>
  
</svg>