<svg viewBox="0 0 1600 1200" xmlns="http://www.w3.org/2000/svg">
  <defs>
    <linearGradient id="headerGradient" x1="0%" y1="0%" x2="100%" y2="0%">
      <stop offset="0%" style="stop-color:#1e3a8a;stop-opacity:1" />
      <stop offset="100%" style="stop-color:#1e40af;stop-opacity:1" />
    </linearGradient>
    <linearGradient id="discoveryGradient" x1="0%" y1="0%" x2="0%" y2="100%">
      <stop offset="0%" style="stop-color:#059669;stop-opacity:1" />
      <stop offset="100%" style="stop-color:#047857;stop-opacity:1" />
    </linearGradient>
    <linearGradient id="orchestratorGradient" x1="0%" y1="0%" x2="0%" y2="100%">
      <stop offset="0%" style="stop-color:#dc2626;stop-opacity:1" />
      <stop offset="100%" style="stop-color:#b91c1c;stop-opacity:1" />
    </linearGradient>
    <linearGradient id="bridgeGradient" x1="0%" y1="0%" x2="0%" y2="100%">
      <stop offset="0%" style="stop-color:#7c3aed;stop-opacity:1" />
      <stop offset="100%" style="stop-color:#6d28d9;stop-opacity:1" />
    </linearGradient>
    <linearGradient id="riskGradient" x1="0%" y1="0%" x2="0%" y2="100%">
      <stop offset="0%" style="stop-color:#f59e0b;stop-opacity:1" />
      <stop offset="100%" style="stop-color:#d97706;stop-opacity:1" />
    </linearGradient>
  </defs>
  
  <!-- Background -->
  <rect width="1600" height="1200" fill="#f8fafc" stroke="#e2e8f0" stroke-width="2"/>
  
  <!-- Title -->
  <rect x="0" y="0" width="1600" height="80" fill="url(#headerGradient)"/>
  <text x="800" y="45" font-family="Arial, sans-serif" font-size="26" font-weight="bold" text-anchor="middle" fill="white">
    Figure 1: Automated Quantum Migration Orchestration System - Complete Architecture
  </text>
  
  <!-- Discovery Engine -->
  <rect x="50" y="120" width="300" height="200" fill="url(#discoveryGradient)" stroke="#047857" stroke-width="3" rx="15"/>
  <text x="200" y="150" font-family="Arial, sans-serif" font-size="18" font-weight="bold" text-anchor="middle" fill="white">
    Intelligent Cryptographic Discovery Engine
  </text>
  <text x="200" y="175" font-family="Arial, sans-serif" font-size="14" font-weight="bold" text-anchor="middle" fill="white">
    (AI-Powered Analysis)
  </text>
  
  <!-- Discovery Components -->
  <rect x="70" y="190" width="120" height="25" fill="#10b981" rx="5"/>
  <text x="130" y="207" font-family="Arial, sans-serif" font-size="10" text-anchor="middle" fill="white">
    Component Classifier AI
  </text>
  
  <rect x="210" y="190" width="120" height="25" fill="#10b981" rx="5"/>
  <text x="270" y="207" font-family="Arial, sans-serif" font-size="10" text-anchor="middle" fill="white">
    Algorithm Identifier AI
  </text>
  
  <rect x="70" y="220" width="120" height="25" fill="#10b981" rx="5"/>
  <text x="130" y="237" font-family="Arial, sans-serif" font-size="10" text-anchor="middle" fill="white">
    Dependency Analyzer
  </text>
  
  <rect x="210" y="220" width="120" height="25" fill="#10b981" rx="5"/>
  <text x="270" y="237" font-family="Arial, sans-serif" font-size="10" text-anchor="middle" fill="white">
    Usage Pattern AI
  </text>
  
  <rect x="140" y="250" width="120" height="25" fill="#10b981" rx="5"/>
  <text x="200" y="267" font-family="Arial, sans-serif" font-size="10" text-anchor="middle" fill="white">
    Risk Assessment AI
  </text>
  
  <rect x="70" y="280" width="260" height="25" fill="#047857" rx="5"/>
  <text x="200" y="297" font-family="Arial, sans-serif" font-size="12" font-weight="bold" text-anchor="middle" fill="white">
    Comprehensive Infrastructure Inventory
  </text>
  
  <!-- Migration Orchestrator -->
  <rect x="400" y="120" width="300" height="200" fill="url(#orchestratorGradient)" stroke="#b91c1c" stroke-width="3" rx="15"/>
  <text x="550" y="150" font-family="Arial, sans-serif" font-size="18" font-weight="bold" text-anchor="middle" fill="white">
    Zero-Downtime Migration Orchestrator
  </text>
  <text x="550" y="175" font-family="Arial, sans-serif" font-size="14" font-weight="bold" text-anchor="middle" fill="white">
    (AI-Optimized Coordination)
  </text>
  
  <!-- Orchestrator Components -->
  <rect x="420" y="190" width="80" height="25" fill="#f87171" rx="5"/>
  <text x="460" y="207" font-family="Arial, sans-serif" font-size="9" text-anchor="middle" fill="white">
    Blue-Green
  </text>
  
  <rect x="510" y="190" width="80" height="25" fill="#f87171" rx="5"/>
  <text x="550" y="207" font-family="Arial, sans-serif" font-size="9" text-anchor="middle" fill="white">
    Canary
  </text>
  
  <rect x="600" y="190" width="80" height="25" fill="#f87171" rx="5"/>
  <text x="640" y="207" font-family="Arial, sans-serif" font-size="9" text-anchor="middle" fill="white">
    Rolling
  </text>
  
  <rect x="420" y="220" width="120" height="25" fill="#f87171" rx="5"/>
  <text x="480" y="237" font-family="Arial, sans-serif" font-size="10" text-anchor="middle" fill="white">
    Performance Optimizer
  </text>
  
  <rect x="560" y="220" width="120" height="25" fill="#f87171" rx="5"/>
  <text x="620" y="237" font-family="Arial, sans-serif" font-size="10" text-anchor="middle" fill="white">
    AI Migration Planner
  </text>
  
  <rect x="420" y="250" width="260" height="25" fill="#b91c1c" rx="5"/>
  <text x="550" y="267" font-family="Arial, sans-serif" font-size="12" font-weight="bold" text-anchor="middle" fill="white">
    99.99% Availability Guarantee
  </text>
  
  <rect x="420" y="280" width="260" height="25" fill="#b91c1c" rx="5"/>
  <text x="550" y="297" font-family="Arial, sans-serif" font-size="12" font-weight="bold" text-anchor="middle" fill="white">
    500,000+ Systems Simultaneous Support
  </text>
  
  <!-- Compatibility Bridge Manager -->
  <rect x="750" y="120" width="300" height="200" fill="url(#bridgeGradient)" stroke="#6d28d9" stroke-width="3" rx="15"/>
  <text x="900" y="150" font-family="Arial, sans-serif" font-size="18" font-weight="bold" text-anchor="middle" fill="white">
    Compatibility Bridge Manager
  </text>
  <text x="900" y="175" font-family="Arial, sans-serif" font-size="14" font-weight="bold" text-anchor="middle" fill="white">
    (Intelligent Protocol Translation)
  </text>
  
  <!-- Bridge Components -->
  <rect x="770" y="190" width="120" height="25" fill="#a78bfa" rx="5"/>
  <text x="830" y="207" font-family="Arial, sans-serif" font-size="10" text-anchor="middle" fill="white">
    TLS/SSL Bridge
  </text>
  
  <rect x="910" y="190" width="120" height="25" fill="#a78bfa" rx="5"/>
  <text x="970" y="207" font-family="Arial, sans-serif" font-size="10" text-anchor="middle" fill="white">
    API Security Bridge
  </text>
  
  <rect x="770" y="220" width="120" height="25" fill="#a78bfa" rx="5"/>
  <text x="830" y="237" font-family="Arial, sans-serif" font-size="10" text-anchor="middle" fill="white">
    Database Bridge
  </text>
  
  <rect x="910" y="220" width="120" height="25" fill="#a78bfa" rx="5"/>
  <text x="970" y="237" font-family="Arial, sans-serif" font-size="10" text-anchor="middle" fill="white">
    Protocol Translator
  </text>
  
  <rect x="840" y="250" width="120" height="25" fill="#a78bfa" rx="5"/>
  <text x="900" y="267" font-family="Arial, sans-serif" font-size="10" text-anchor="middle" fill="white">
    Dual-Mode Manager
  </text>
  
  <rect x="770" y="280" width="260" height="25" fill="#6d28d9" rx="5"/>
  <text x="900" y="297" font-family="Arial, sans-serif" font-size="12" font-weight="bold" text-anchor="middle" fill="white">
    Seamless Interoperability
  </text>
  
  <!-- Risk Assessment Engine -->
  <rect x="1100" y="120" width="300" height="200" fill="url(#riskGradient)" stroke="#d97706" stroke-width="3" rx="15"/>
  <text x="1250" y="150" font-family="Arial, sans-serif" font-size="18" font-weight="bold" text-anchor="middle" fill="white">
    AI-Powered Risk Assessment
  </text>
  <text x="1250" y="175" font-family="Arial, sans-serif" font-size="14" font-weight="bold" text-anchor="middle" fill="white">
    (Predictive Analytics)
  </text>
  
  <!-- Risk Components -->
  <rect x="1120" y="190" width="110" height="25" fill="#fbbf24" rx="5"/>
  <text x="1175" y="207" font-family="Arial, sans-serif" font-size="9" text-anchor="middle" fill="black">
    ML Risk Predictor
  </text>
  
  <rect x="1240" y="190" width="110" height="25" fill="#fbbf24" rx="5"/>
  <text x="1295" y="207" font-family="Arial, sans-serif" font-size="9" text-anchor="middle" fill="black">
    Simulation Engine
  </text>
  
  <rect x="1120" y="220" width="110" height="25" fill="#fbbf24" rx="5"/>
  <text x="1175" y="237" font-family="Arial, sans-serif" font-size="9" text-anchor="middle" fill="black">
    Threat Intelligence
  </text>
  
  <rect x="1240" y="220" width="110" height="25" fill="#fbbf24" rx="5"/>
  <text x="1295" y="237" font-family="Arial, sans-serif" font-size="9" text-anchor="middle" fill="black">
    Mitigation Planner
  </text>
  
  <rect x="1180" y="250" width="140" height="25" fill="#fbbf24" rx="5"/>
  <text x="1250" y="267" font-family="Arial, sans-serif" font-size="10" text-anchor="middle" fill="black">
    Continuous Monitoring
  </text>
  
  <rect x="1120" y="280" width="260" height="25" fill="#d97706" rx="5"/>
  <text x="1250" y="297" font-family="Arial, sans-serif" font-size="12" font-weight="bold" text-anchor="middle" fill="white">
    Predictive Risk Prevention
  </text>
  
  <!-- Rollback Controller -->
  <rect x="200" y="360" width="300" height="180" fill="#1f2937" stroke="#374151" stroke-width="3" rx="15"/>
  <text x="350" y="390" font-family="Arial, sans-serif" font-size="18" font-weight="bold" text-anchor="middle" fill="white">
    Automated Rollback Controller
  </text>
  <text x="350" y="415" font-family="Arial, sans-serif" font-size="14" font-weight="bold" text-anchor="middle" fill="white">
    (Instant Recovery &lt; 10 Minutes)
  </text>
  
  <!-- Rollback Components -->
  <rect x="220" y="430" width="120" height="25" fill="#6b7280" rx="5"/>
  <text x="280" y="447" font-family="Arial, sans-serif" font-size="10" text-anchor="middle" fill="white">
    State Manager
  </text>
  
  <rect x="360" y="430" width="120" height="25" fill="#6b7280" rx="5"/>
  <text x="420" y="447" font-family="Arial, sans-serif" font-size="10" text-anchor="middle" fill="white">
    Health Monitor AI
  </text>
  
  <rect x="220" y="460" width="120" height="25" fill="#6b7280" rx="5"/>
  <text x="280" y="477" font-family="Arial, sans-serif" font-size="10" text-anchor="middle" fill="white">
    Recovery Engine
  </text>
  
  <rect x="360" y="460" width="120" height="25" fill="#6b7280" rx="5"/>
  <text x="420" y="477" font-family="Arial, sans-serif" font-size="10" text-anchor="middle" fill="white">
    Verification System
  </text>
  
  <rect x="290" y="490" width="120" height="25" fill="#6b7280" rx="5"/>
  <text x="350" y="507" font-family="Arial, sans-serif" font-size="10" text-anchor="middle" fill="white">
    Learning Module
  </text>
  
  <!-- Security Validation Framework -->
  <rect x="550" y="360" width="300" height="180" fill="#065f46" stroke="#047857" stroke-width="3" rx="15"/>
  <text x="700" y="390" font-family="Arial, sans-serif" font-size="18" font-weight="bold" text-anchor="middle" fill="white">
    Security Validation Framework
  </text>
  <text x="700" y="415" font-family="Arial, sans-serif" font-size="14" font-weight="bold" text-anchor="middle" fill="white">
    (Continuous Security Assurance)
  </text>
  
  <!-- Security Components -->
  <rect x="570" y="430" width="120" height="25" fill="#10b981" rx="5"/>
  <text x="630" y="447" font-family="Arial, sans-serif" font-size="10" text-anchor="middle" fill="white">
    Vulnerability Scanner
  </text>
  
  <rect x="710" y="430" width="120" height="25" fill="#10b981" rx="5"/>
  <text x="770" y="447" font-family="Arial, sans-serif" font-size="10" text-anchor="middle" fill="white">
    Threat Intelligence
  </text>
  
  <rect x="570" y="460" width="120" height="25" fill="#10b981" rx="5"/>
  <text x="630" y="477" font-family="Arial, sans-serif" font-size="10" text-anchor="middle" fill="white">
    Behavioral Monitor
  </text>
  
  <rect x="710" y="460" width="120" height="25" fill="#10b981" rx="5"/>
  <text x="770" y="477" font-family="Arial, sans-serif" font-size="10" text-anchor="middle" fill="white">
    Compliance Checker
  </text>
  
  <rect x="640" y="490" width="120" height="25" fill="#10b981" rx="5"/>
  <text x="700" y="507" font-family="Arial, sans-serif" font-size="10" text-anchor="middle" fill="white">
    Crypto Validator
  </text>
  
  <!-- Migration Analytics -->
  <rect x="900" y="360" width="300" height="180" fill="#7c2d12" stroke="#a16207" stroke-width="3" rx="15"/>
  <text x="1050" y="390" font-family="Arial, sans-serif" font-size="18" font-weight="bold" text-anchor="middle" fill="white">
    Migration Analytics &amp; Reporting
  </text>
  <text x="1050" y="415" font-family="Arial, sans-serif" font-size="14" font-weight="bold" text-anchor="middle" fill="white">
    (Real-Time Intelligence)
  </text>
  
  <!-- Analytics Components -->
  <rect x="920" y="430" width="120" height="25" fill="#f59e0b" rx="5"/>
  <text x="980" y="447" font-family="Arial, sans-serif" font-size="10" text-anchor="middle" fill="black">
    Progress Tracker
  </text>
  
  <rect x="1060" y="430" width="120" height="25" fill="#f59e0b" rx="5"/>
  <text x="1120" y="447" font-family="Arial, sans-serif" font-size="10" text-anchor="middle" fill="black">
    Performance Monitor
  </text>
  
  <rect x="920" y="460" width="120" height="25" fill="#f59e0b" rx="5"/>
  <text x="980" y="477" font-family="Arial, sans-serif" font-size="10" text-anchor="middle" fill="black">
    Cost Analyzer
  </text>
  
  <rect x="1060" y="460" width="120" height="25" fill="#f59e0b" rx="5"/>
  <text x="1120" y="477" font-family="Arial, sans-serif" font-size="10" text-anchor="middle" fill="black">
    Compliance Reporter
  </text>
  
  <rect x="990" y="490" width="120" height="25" fill="#f59e0b" rx="5"/>
  <text x="1050" y="507" font-family="Arial, sans-serif" font-size="10" text-anchor="middle" fill="black">
    Dashboard Engine
  </text>
  
  <!-- Enterprise Integration Layer -->
  <rect x="100" y="580" width="1200" height="100" fill="#312e81" stroke="#3730a3" stroke-width="3" rx="15"/>
  <text x="700" y="610" font-family="Arial, sans-serif" font-size="20" font-weight="bold" text-anchor="middle" fill="white">
    Enterprise Integration Layer
  </text>
  
  <!-- Integration Components -->
  <rect x="130" y="630" width="140" height="25" fill="#6366f1" rx="5"/>
  <text x="200" y="647" font-family="Arial, sans-serif" font-size="11" text-anchor="middle" fill="white">
    ITSM Integration
  </text>
  
  <rect x="290" y="630" width="140" height="25" fill="#6366f1" rx="5"/>
  <text x="360" y="647" font-family="Arial, sans-serif" font-size="11" text-anchor="middle" fill="white">
    Multi-Cloud Support
  </text>
  
  <rect x="450" y="630" width="140" height="25" fill="#6366f1" rx="5"/>
  <text x="520" y="647" font-family="Arial, sans-serif" font-size="11" text-anchor="middle" fill="white">
    API Gateway
  </text>
  
  <rect x="610" y="630" width="140" height="25" fill="#6366f1" rx="5"/>
  <text x="680" y="647" font-family="Arial, sans-serif" font-size="11" text-anchor="middle" fill="white">
    Disaster Recovery
  </text>
  
  <rect x="770" y="630" width="140" height="25" fill="#6366f1" rx="5"/>
  <text x="840" y="647" font-family="Arial, sans-serif" font-size="11" text-anchor="middle" fill="white">
    Custom Policies
  </text>
  
  <rect x="930" y="630" width="140" height="25" fill="#6366f1" rx="5"/>
  <text x="1000" y="647" font-family="Arial, sans-serif" font-size="11" text-anchor="middle" fill="white">
    Role-Based Access
  </text>
  
  <rect x="1090" y="630" width="140" height="25" fill="#6366f1" rx="5"/>
  <text x="1160" y="647" font-family="Arial, sans-serif" font-size="11" text-anchor="middle" fill="white">
    Future Extensions
  </text>
  
  <!-- Infrastructure Layer -->
  <rect x="100" y="720" width="1200" height="120" fill="#1f2937" stroke="#374151" stroke-width="3" rx="15"/>
  <text x="700" y="750" font-family="Arial, sans-serif" font-size="20" font-weight="bold" text-anchor="middle" fill="white">
    Target Infrastructure Layer
  </text>
  
  <!-- Infrastructure Components -->
  <rect x="130" y="770" width="130" height="30" fill="#4b5563" rx="5"/>
  <text x="195" y="790" font-family="Arial, sans-serif" font-size="12" font-weight="bold" text-anchor="middle" fill="white">
    Applications
  </text>
  
  <rect x="280" y="770" width="130" height="30" fill="#4b5563" rx="5"/>
  <text x="345" y="790" font-family="Arial, sans-serif" font-size="12" font-weight="bold" text-anchor="middle" fill="white">
    Databases
  </text>
  
  <rect x="430" y="770" width="130" height="30" fill="#4b5563" rx="5"/>
  <text x="495" y="790" font-family="Arial, sans-serif" font-size="12" font-weight="bold" text-anchor="middle" fill="white">
    Network Protocols
  </text>
  
  <rect x="580" y="770" width="130" height="30" fill="#4b5563" rx="5"/>
  <text x="645" y="790" font-family="Arial, sans-serif" font-size="12" font-weight="bold" text-anchor="middle" fill="white">
    APIs &amp; Services
  </text>
  
  <rect x="730" y="770" width="130" height="30" fill="#4b5563" rx="5"/>
  <text x="795" y="790" font-family="Arial, sans-serif" font-size="12" font-weight="bold" text-anchor="middle" fill="white">
    Storage Systems
  </text>
  
  <rect x="880" y="770" width="130" height="30" fill="#4b5563" rx="5"/>
  <text x="945" y="790" font-family="Arial, sans-serif" font-size="12" font-weight="bold" text-anchor="middle" fill="white">
    Certificates
  </text>
  
  <rect x="1030" y="770" width="130" height="30" fill="#4b5563" rx="5"/>
  <text x="1095" y="790" font-family="Arial, sans-serif" font-size="12" font-weight="bold" text-anchor="middle" fill="white">
    Key Management
  </text>
  
  <!-- Cloud Environments -->
  <rect x="150" y="800" width="100" height="20" fill="#6b7280" rx="3"/>
  <text x="200" y="812" font-family="Arial, sans-serif" font-size="9" text-anchor="middle" fill="white">
    On-Premises
  </text>
  
  <rect x="300" y="800" width="100" height="20" fill="#6b7280" rx="3"/>
  <text x="350" y="812" font-family="Arial, sans-serif" font-size="9" text-anchor="middle" fill="white">
    AWS/Azure/GCP
  </text>
  
  <rect x="450" y="800" width="100" height="20" fill="#6b7280" rx="3"/>
  <text x="500" y="812" font-family="Arial, sans-serif" font-size="9" text-anchor="middle" fill="white">
    Hybrid Cloud
  </text>
  
  <rect x="600" y="800" width="100" height="20" fill="#6b7280" rx="3"/>
  <text x="650" y="812" font-family="Arial, sans-serif" font-size="9" text-anchor="middle" fill="white">
    Multi-Cloud
  </text>
  
  <rect x="750" y="800" width="100" height="20" fill="#6b7280" rx="3"/>
  <text x="800" y="812" font-family="Arial, sans-serif" font-size="9" text-anchor="middle" fill="white">
    Edge Computing
  </text>
  
  <rect x="900" y="800" width="100" height="20" fill="#6b7280" rx="3"/>
  <text x="950" y="812" font-family="Arial, sans-serif" font-size="9" text-anchor="middle" fill="white">
    IoT Networks
  </text>
  
  <rect x="1050" y="800" width="100" height="20" fill="#6b7280" rx="3"/>
  <text x="1100" y="812" font-family="Arial, sans-serif" font-size="9" text-anchor="middle" fill="white">
    Air-Gapped
  </text>
  
  <!-- Performance Metrics -->
  <rect x="100" y="880" width="1200" height="80" fill="#0f172a" stroke="#1e293b" stroke-width="3" rx="15"/>
  <text x="700" y="910" font-family="Arial, sans-serif" font-size="18" font-weight="bold" text-anchor="middle" fill="white">
    System Performance Characteristics
  </text>
  
  <rect x="150" y="930" width="200" height="20" fill="#1e40af" rx="3"/>
  <text x="250" y="942" font-family="Arial, sans-serif" font-size="11" font-weight="bold" text-anchor="middle" fill="white">
    500,000+ Systems Supported
  </text>
  
  <rect x="370" y="930" width="200" height="20" fill="#dc2626" rx="3"/>
  <text x="470" y="942" font-family="Arial, sans-serif" font-size="11" font-weight="bold" text-anchor="middle" fill="white">
    99.99% Availability Guarantee
  </text>
  
  <rect x="590" y="930" width="200" height="20" fill="#059669" rx="3"/>
  <text x="690" y="942" font-family="Arial, sans-serif" font-size="11" font-weight="bold" text-anchor="middle" fill="white">
    &lt;10 Min Emergency Rollback
  </text>
  
  <rect x="810" y="930" width="200" height="20" fill="#7c3aed" rx="3"/>
  <text x="910" y="942" font-family="Arial, sans-serif" font-size="11" font-weight="bold" text-anchor="middle" fill="white">
    85% Time Reduction vs Manual
  </text>
  
  <rect x="1030" y="930" width="200" height="20" fill="#f59e0b" rx="3"/>
  <text x="1130" y="942" font-family="Arial, sans-serif" font-size="11" font-weight="bold" text-anchor="middle" fill="white">
    Linear Scalability
  </text>
  
  <!-- Value Proposition -->
  <rect x="100" y="980" width="1200" height="60" fill="#7c2d12" stroke="#a16207" stroke-width="3" rx="15"/>
  <text x="700" y="1005" font-family="Arial, sans-serif" font-size="16" font-weight="bold" text-anchor="middle" fill="white">
    Commercial Value Proposition
  </text>
  <text x="700" y="1025" font-family="Arial, sans-serif" font-size="14" text-anchor="middle" fill="white">
    Estimated Market Value: $750 Million - $1.2 Billion | Cost Reduction: 80% vs Manual Migration
  </text>
  
  <!-- Connection Arrows -->
  <defs>
    <marker id="arrowhead" markerWidth="10" markerHeight="7" refX="0" refY="3.5" orient="auto">
      <polygon points="0 0, 10 3.5, 0 7" fill="#374151" />
    </marker>
  </defs>
  
  <!-- Main Component Connections -->
  <line x1="350" y1="220" x2="400" y2="220" stroke="#374151" stroke-width="3" marker-end="url(#arrowhead)"/>
  <line x1="700" y1="220" x2="750" y2="220" stroke="#374151" stroke-width="3" marker-end="url(#arrowhead)"/>
  <line x1="1050" y1="220" x2="1100" y2="220" stroke="#374151" stroke-width="3" marker-end="url(#arrowhead)"/>
  
  <!-- To Lower Layer Connections -->
  <line x1="350" y1="320" x2="350" y2="360" stroke="#374151" stroke-width="3" marker-end="url(#arrowhead)"/>
  <line x1="700" y1="320" x2="700" y2="360" stroke="#374151" stroke-width="3" marker-end="url(#arrowhead)"/>
  <line x1="1050" y1="320" x2="1050" y2="360" stroke="#374151" stroke-width="3" marker-end="url(#arrowhead)"/>
  
  <!-- To Enterprise Layer -->
  <line x1="350" y1="540" x2="700" y2="580" stroke="#374151" stroke-width="3" marker-end="url(#arrowhead)"/>
  <line x1="700" y1="540" x2="700" y2="580" stroke="#374151" stroke-width="3" marker-end="url(#arrowhead)"/>
  <line x1="1050" y1="540" x2="700" y2="580" stroke="#374151" stroke-width="3" marker-end="url(#arrowhead)"/>
  
  <!-- To Infrastructure Layer -->
  <line x1="700" y1="680" x2="700" y2="720" stroke="#374151" stroke-width="3" marker-end="url(#arrowhead)"/>
  
  <!-- Feedback Loops -->
  <path d="M 200 340 Q 50 400 200 460" stroke="#6b7280" stroke-width="2" fill="none" stroke-dasharray="5,5" marker-end="url(#arrowhead)"/>
  <path d="M 550 340 Q 400 400 550 460" stroke="#6b7280" stroke-width="2" fill="none" stroke-dasharray="5,5" marker-end="url(#arrowhead)"/>
  <path d="M 900 340 Q 750 400 900 460" stroke="#6b7280" stroke-width="2" fill="none" stroke-dasharray="5,5" marker-end="url(#arrowhead)"/>
  
  <!-- AI Integration Indicators -->
  <circle cx="200" cy="100" r="15" fill="#ef4444" stroke="#dc2626" stroke-width="2"/>
  <text x="200" y="105" font-family="Arial, sans-serif" font-size="10" font-weight="bold" text-anchor="middle" fill="white">AI</text>
  
  <circle cx="550" cy="100" r="15" fill="#ef4444" stroke="#dc2626" stroke-width="2"/>
  <text x="550" y="105" font-family="Arial, sans-serif" font-size="10" font-weight="bold" text-anchor="middle" fill="white">AI</text>
  
  <circle cx="1250" cy="100" r="15" fill="#ef4444" stroke="#dc2626" stroke-width="2"/>
  <text x="1250" y="105" font-family="Arial, sans-serif" font-size="10" font-weight="bold" text-anchor="middle" fill="white">AI</text>
  
  <circle cx="350" cy="340" r="15" fill="#ef4444" stroke="#dc2626" stroke-width="2"/>
  <text x="350" y="345" font-family="Arial, sans-serif" font-size="10" font-weight="bold" text-anchor="middle" fill="white">AI</text>
  
  <!-- Scale Indicators -->
  <rect x="1450" y="120" width="120" height="200" fill="#fef3c7" stroke="#f59e0b" stroke-width="2" rx="10"/>
  <text x="1510" y="145" font-family="Arial, sans-serif" font-size="14" font-weight="bold" text-anchor="middle" fill="#92400e">
    Scale Metrics
  </text>
  <text x="1510" y="170" font-family="Arial, sans-serif" font-size="11" text-anchor="middle" fill="#92400e">
    • 500,000+ Systems
  </text>
  <text x="1510" y="190" font-family="Arial, sans-serif" font-size="11" text-anchor="middle" fill="#92400e">
    • Global Distribution
  </text>
  <text x="1510" y="210" font-family="Arial, sans-serif" font-size="11" text-anchor="middle" fill="#92400e">
    • Linear Scaling
  </text>
  <text x="1510" y="230" font-family="Arial, sans-serif" font-size="11" text-anchor="middle" fill="#92400e">
    • Multi-Cloud Support
  </text>
  <text x="1510" y="250" font-family="Arial, sans-serif" font-size="11" text-anchor="middle" fill="#92400e">
    • Edge Computing
  </text>
  <text x="1510" y="270" font-family="Arial, sans-serif" font-size="11" text-anchor="middle" fill="#92400e">
    • Air-Gap Compatible
  </text>
  <text x="1510" y="290" font-family="Arial, sans-serif" font-size="11" text-anchor="middle" fill="#92400e">
    • Future-Proof Design
  </text>
  
</svg>