<svg width="1200" height="800" xmlns="http://www.w3.org/2000/svg">
  <!-- Title -->
  <text x="600" y="30" text-anchor="middle" font-size="18" font-weight="bold" fill="black">
    FIGURE 1: QUANTUM-SAFE GEOGRAPHIC DISTRIBUTION ARCHITECTURE
  </text>
  
  <!-- World Map Outline -->
  <g stroke="black" fill="none" stroke-width="1">
    <!-- Simplified world continents -->
    <!-- North America -->
    <path d="M50,200 Q100,180 200,200 Q250,220 300,200 Q350,190 400,220 Q380,300 300,350 Q200,380 100,350 Q50,300 50,200"/>
    <!-- Europe -->
    <path d="M450,180 Q500,160 550,180 Q580,200 570,230 Q540,250 490,240 Q450,220 450,180"/>
    <!-- Asia -->
    <path d="M580,150 Q700,130 850,150 Q950,170 1000,200 Q980,280 900,320 Q800,340 700,320 Q600,300 580,250 Q570,200 580,150"/>
    <!-- Australia -->
    <path d="M850,450 Q900,440 950,450 Q980,470 970,500 Q940,520 890,510 Q850,490 850,450"/>
    <!-- Africa -->
    <path d="M480,280 Q520,270 560,290 Q580,350 570,420 Q560,480 540,520 Q500,540 460,520 Q440,480 450,420 Q460,350 480,280"/>
    <!-- South America -->
    <path d="M250,380 Q280,370 310,390 Q330,450 320,520 Q310,580 290,620 Q270,640 250,620 Q230,580 240,520 Q250,450 250,380"/>
  </g>
  
  <!-- Geographic Nodes -->
  <!-- New York -->
  <g id="NewYork">
    <circle cx="200" cy="250" r="15" fill="#FF6B6B" stroke="black" stroke-width="2"/>
    <text x="200" y="275" text-anchor="middle" font-size="10" font-weight="bold">New York</text>
    <text x="200" y="287" text-anchor="middle" font-size="8">40.7128°N, 74.0060°W</text>
    <text x="200" y="297" text-anchor="middle" font-size="8" fill="blue">Fragment A</text>
  </g>
  
  <!-- London -->
  <g id="London">
    <circle cx="500" cy="200" r="15" fill="#4ECDC4" stroke="black" stroke-width="2"/>
    <text x="500" y="225" text-anchor="middle" font-size="10" font-weight="bold">London</text>
    <text x="500" y="237" text-anchor="middle" font-size="8">51.5074°N, 0.1278°W</text>
    <text x="500" y="247" text-anchor="middle" font-size="8" fill="blue">Fragment B</text>
  </g>
  
  <!-- Tokyo -->
  <g id="Tokyo">
    <circle cx="850" cy="220" r="15" fill="#45B7D1" stroke="black" stroke-width="2"/>
    <text x="850" y="245" text-anchor="middle" font-size="10" font-weight="bold">Tokyo</text>
    <text x="850" y="257" text-anchor="middle" font-size="8">35.6762°N, 139.6503°E</text>
    <text x="850" y="267" text-anchor="middle" font-size="8" fill="blue">Fragment C</text>
  </g>
  
  <!-- Sydney -->
  <g id="Sydney">
    <circle cx="900" cy="480" r="15" fill="#96CEB4" stroke="black" stroke-width="2"/>
    <text x="900" y="505" text-anchor="middle" font-size="10" font-weight="bold">Sydney</text>
    <text x="900" y="517" text-anchor="middle" font-size="8">-33.8688°S, 151.2093°E</text>
    <text x="900" y="527" text-anchor="middle" font-size="8" fill="blue">Fragment D</text>
  </g>
  
  <!-- São Paulo -->
  <g id="SaoPaulo">
    <circle cx="290" cy="520" r="15" fill="#FFEAA7" stroke="black" stroke-width="2"/>
    <text x="290" y="545" text-anchor="middle" font-size="10" font-weight="bold">São Paulo</text>
    <text x="290" y="557" text-anchor="middle" font-size="8">-23.5505°S, -46.6333°W</text>
    <text x="290" y="567" text-anchor="middle" font-size="8" fill="blue">Fragment E</text>
  </g>
  
  <!-- Johannesburg -->
  <g id="Johannesburg">
    <circle cx="530" cy="470" r="15" fill="#DDA0DD" stroke="black" stroke-width="2"/>
    <text x="530" y="495" text-anchor="middle" font-size="10" font-weight="bold">Johannesburg</text>
    <text x="530" y="507" text-anchor="middle" font-size="8">-26.2041°S, 28.0473°E</text>
    <text x="530" y="517" text-anchor="middle" font-size="8" fill="blue">Fragment F</text>
  </g>
  
  <!-- Speed-of-Light Constraint Lines -->
  <!-- NY to London -->
  <line x1="200" y1="250" x2="500" y2="200" stroke="#FF4757" stroke-width="3" stroke-dasharray="10,5" opacity="0.7"/>
  <text x="350" y="215" text-anchor="middle" font-size="9" fill="#FF4757" font-weight="bold">5,585km (18.6ms light delay)</text>
  
  <!-- London to Tokyo -->
  <line x1="500" y1="200" x2="850" y2="220" stroke="#FF4757" stroke-width="3" stroke-dasharray="10,5" opacity="0.7"/>
  <text x="675" y="200" text-anchor="middle" font-size="9" fill="#FF4757" font-weight="bold">9,561km (31.9ms light delay)</text>
  
  <!-- Tokyo to Sydney -->
  <line x1="850" y1="220" x2="900" y2="480" stroke="#FF4757" stroke-width="3" stroke-dasharray="10,5" opacity="0.7"/>
  <text x="890" y="350" text-anchor="middle" font-size="9" fill="#FF4757" font-weight="bold" transform="rotate(80,890,350)">7,823km (26.1ms light delay)</text>
  
  <!-- Fragment Expiration Timer -->
  <g id="FragmentTimer">
    <rect x="50" y="600" width="300" height="120" fill="#f8f9fa" stroke="black" stroke-width="2" rx="10"/>
    <text x="200" y="620" text-anchor="middle" font-size="12" font-weight="bold">Fragment Expiration Timing</text>
    <text x="70" y="640" font-size="10">• Fragment Lifetime: 15ms</text>
    <text x="70" y="655" font-size="10">• Minimum Light Delay: 18.6ms</text>
    <text x="70" y="670" font-size="10">• Security Guarantee: IMPOSSIBLE</text>
    <text x="70" y="685" font-size="10">  simultaneous access without</text>
    <text x="70" y="700" font-size="10">  faster-than-light communication</text>
  </g>
  
  <!-- AI Agent Transport Network -->
  <g id="AIAgents">
    <rect x="400" y="600" width="350" height="120" fill="#e3f2fd" stroke="black" stroke-width="2" rx="10"/>
    <text x="575" y="620" text-anchor="middle" font-size="12" font-weight="bold">AI Agent Transport Network</text>
    
    <!-- Agent Icons -->
    <circle cx="430" cy="650" r="8" fill="#2196F3"/>
    <text x="430" y="655" text-anchor="middle" font-size="6" fill="white">AI</text>
    <text x="450" y="655" font-size="9">Zero-Knowledge Transport</text>
    
    <circle cx="430" cy="670" r="8" fill="#4CAF50"/>
    <text x="430" y="675" text-anchor="middle" font-size="6" fill="white">AI</text>
    <text x="450" y="675" font-size="9">Integrity Verification</text>
    
    <circle cx="430" cy="690" r="8" fill="#FF9800"/>
    <text x="430" y="695" text-anchor="middle" font-size="6" fill="white">AI</text>
    <text x="450" y="695" font-size="9">Secure Memory Wipe</text>
  </g>
  
  <!-- Physics Monitoring System -->
  <g id="PhysicsMonitoring">
    <rect x="800" y="600" width="350" height="120" fill="#fff3e0" stroke="black" stroke-width="2" rx="10"/>
    <text x="975" y="620" text-anchor="middle" font-size="12" font-weight="bold">Physics Violation Detection</text>
    <text x="820" y="640" font-size="10">• Atomic Clock Synchronization: ±1μs</text>
    <text x="820" y="655" font-size="10">• Real-time Access Monitoring</text>
    <text x="820" y="670" font-size="10">• Impossible Pattern Detection</text>
    <text x="820" y="685" font-size="10">• Automatic Fragment Destruction</text>
    <text x="820" y="700" font-size="10">• Emergency Response Protocols</text>
  </g>
  
  <!-- Security Level Indicator -->
  <g id="SecurityLevel">
    <rect x="50" y="50" width="300" height="80" fill="#e8f5e8" stroke="green" stroke-width="3" rx="10"/>
    <text x="200" y="70" text-anchor="middle" font-size="14" font-weight="bold" fill="green">INFORMATION-THEORETIC SECURITY</text>
    <text x="200" y="90" text-anchor="middle" font-size="12" fill="green">Guaranteed by Fundamental Physics</text>
    <text x="200" y="110" text-anchor="middle" font-size="10" fill="green">Immune to Quantum Computing Attacks</text>
  </g>
  
  <!-- Legend -->
  <g id="Legend">
    <rect x="850" y="50" width="300" height="120" fill="#f5f5f5" stroke="black" stroke-width="1" rx="5"/>
    <text x="1000" y="70" text-anchor="middle" font-size="12" font-weight="bold">Legend</text>
    
    <circle cx="870" cy="85" r="8" fill="#FF6B6B"/>
    <text x="890" y="90" font-size="10">Secure Fragment Location</text>
    
    <line x1="870" y1="100" x2="890" y2="100" stroke="#FF4757" stroke-width="3" stroke-dasharray="5,3"/>
    <text x="900" y="105" font-size="10">Light-Speed Constraint</text>
    
    <circle cx="870" cy="115" r="6" fill="#2196F3"/>
    <text x="870" y="120" text-anchor="middle" font-size="5" fill="white">AI</text>
    <text x="890" y="120" font-size="10">AI Transport Agent</text>
    
    <rect x="870" y="130" width="12" height="8" fill="#e8f5e8" stroke="green"/>
    <text x="890" y="138" font-size="10">Physics-Based Security</text>
  </g>
</svg>